<svg>
    <defs>
    <symbol id="integral" viewBox="0 0 10 200">
        <polygon points="0,0 40,0 40,80 0,80" stroke="red" fill="blue" opacity="0.2"/>
        <path style="stroke:none;" d="M 3.734375 78.0625 C 4.875 78 5.484375 77.203125 5.484375 76.3125 C 5.484375 75.125 4.59375 74.546875 3.765625 74.546875 C 2.90625 74.546875 2.015625 75.09375 2.015625 76.34375 C 2.015625 78.171875 3.796875 79.671875 5.984375 79.671875 C 11.4375 79.671875 13.484375 71.28125 16.03125 60.890625 C 18.796875 49.5625 21.125 38.125 23.0625 26.609375 C 24.390625 18.96875 25.71875 11.796875 26.9375 7.171875 C 27.359375 5.421875 28.578125 0.78125 29.984375 0.78125 C 31.09375 0.78125 31.984375 1.46875 32.125 1.609375 C 30.953125 1.6875 30.34375 2.46875 30.34375 3.375 C 30.34375 4.546875 31.234375 5.125 32.0625 5.125 C 32.921875 5.125 33.8125 4.59375 33.8125 3.328125 C 33.8125 1.40625 31.875 0 29.90625 0 C 27.1875 0 25.171875 3.90625 23.203125 11.21875 C 23.09375 11.625 18.21875 29.625 14.265625 53.078125 C 13.34375 58.5625 12.296875 64.546875 11.109375 69.53125 C 10.46875 72.15625 8.828125 78.890625 5.921875 78.890625 C 4.625 78.890625 3.765625 78.0625 3.734375 78.0625 Z M 3.734375 78.0625 "/>
    </symbol>
    </defs>
  <svg x="0" y="0" width="40" height="100" viewBox="0 0 4 10" preserveAspectRatio="none">
    <circle cx="3" cy="2" r="0.5" />
    <path fill="none" stroke="black" stroke-width="0.03rem" d="M 0.8,8.25 C 2.8,9 1.2,1 3.2,1.75" />
    <circle cx="1" cy="8" r="0.5" />
  </svg>
  <svg x="70" y="70" width="200" height="200">
       <use href="#integral"\>
  </svg>
</svg>