<svg height="660.0" width="1000.0" version="4.0" xmlns="http://www.w3.org/2000/svg" xmlns:xlink= "http://www.w3.org/1999/xlink">
<rect width="100%" height="100%" fill="white"/>
<defs><style>@import url("https://fonts.googleapis.com/css?family=Roboto");</style></defs>
<rect x="0.0" y="0.0" width="1000.0" height="660.0" style="fill:rgb(255.0,255.0,255.0);stroke-width:0;stroke:rgb(0,0,0);opacity:1.0" />
<line x1="135.5" y1="583.0" x2="135.5" y2="54.0" style="stroke:rgb(127.5,127.5,127.5);stroke-width:0.5;opacity:1.0;stroke-linecap:butt" />
<line x1="500.18234" y1="583.0" x2="500.18234" y2="54.0" style="stroke:rgb(127.5,127.5,127.5);stroke-width:0.5;opacity:1.0;stroke-linecap:butt" />
<line x1="864.8647" y1="583.0" x2="864.8647" y2="54.0" style="stroke:rgb(127.5,127.5,127.5);stroke-width:0.5;opacity:1.0;stroke-linecap:butt" />
<line x1="95.0" y1="300.36374" x2="905.0" y2="300.36374" style="stroke:rgb(127.5,127.5,127.5);stroke-width:0.5;opacity:1.0;stroke-linecap:butt" />
<line x1="95.0" y1="190.40689" x2="905.0" y2="190.40689" style="stroke:rgb(127.5,127.5,127.5);stroke-width:0.5;opacity:1.0;stroke-linecap:butt" />
<line x1="95.0" y1="80.45007" x2="905.0" y2="80.45007" style="stroke:rgb(127.5,127.5,127.5);stroke-width:0.5;opacity:1.0;stroke-linecap:butt" />
<line x1="95.0" y1="410.3206" x2="905.0" y2="410.3206" style="stroke:rgb(127.5,127.5,127.5);stroke-width:0.5;opacity:1.0;stroke-linecap:butt" />
<line x1="95.0" y1="520.27747" x2="905.0" y2="520.27747" style="stroke:rgb(127.5,127.5,127.5);stroke-width:0.5;opacity:1.0;stroke-linecap:butt" />
<rect x="94.0" y="53.0" width="812.0" height="531.0" style="fill:rgb(255,255,255);stroke-width:2.0;stroke:rgb(0.0,0.0,0.0);opacity:1;fill-opacity:0;" />
<line x1="135.5" y1="585.0" x2="135.5" y2="591.0" style="stroke:rgb(0.0,0.0,0.0);stroke-width:2.0;opacity:1.0;stroke-linecap:butt" />
<text font-size="12.0" font-family="Roboto" x="117.12" y="609.0" style="stroke:rgb(0.0,0.0,0.0);stroke-width:0.175;fill:rgb(0.0,0.0,0.0);opacity:1.0;" transform="rotate(-0.0,117.12,609.0)">0.0</text>
<line x1="500.18234" y1="585.0" x2="500.18234" y2="591.0" style="stroke:rgb(0.0,0.0,0.0);stroke-width:2.0;opacity:1.0;stroke-linecap:butt" />
<text font-size="12.0" font-family="Roboto" x="480.12234" y="609.0" style="stroke:rgb(0.0,0.0,0.0);stroke-width:0.175;fill:rgb(0.0,0.0,0.0);opacity:1.0;" transform="rotate(-0.0,480.12234,609.0)">10.0</text>
<line x1="864.8647" y1="585.0" x2="864.8647" y2="591.0" style="stroke:rgb(0.0,0.0,0.0);stroke-width:2.0;opacity:1.0;stroke-linecap:butt" />
<text font-size="12.0" font-family="Roboto" x="844.3247" y="609.0" style="stroke:rgb(0.0,0.0,0.0);stroke-width:0.175;fill:rgb(0.0,0.0,0.0);opacity:1.0;" transform="rotate(-0.0,844.3247,609.0)">20.0</text>
<line x1="87.0" y1="300.36374" x2="93.0" y2="300.36374" style="stroke:rgb(0.0,0.0,0.0);stroke-width:2.0;opacity:1.0;stroke-linecap:butt" />
<text font-size="12.0" font-family="Roboto" x="46.24" y="306.36374" style="stroke:rgb(0.0,0.0,0.0);stroke-width:0.175;fill:rgb(0.0,0.0,0.0);opacity:1.0;" transform="rotate(-0.0,46.24,306.36374)">0.0</text>
<line x1="87.0" y1="190.40689" x2="93.0" y2="190.40689" style="stroke:rgb(0.0,0.0,0.0);stroke-width:2.0;opacity:1.0;stroke-linecap:butt" />
<text font-size="12.0" font-family="Roboto" x="47.2" y="196.40689" style="stroke:rgb(0.0,0.0,0.0);stroke-width:0.175;fill:rgb(0.0,0.0,0.0);opacity:1.0;" transform="rotate(-0.0,47.2,196.40689)">1.0</text>
<line x1="87.0" y1="80.45007" x2="93.0" y2="80.45007" style="stroke:rgb(0.0,0.0,0.0);stroke-width:2.0;opacity:1.0;stroke-linecap:butt" />
<text font-size="12.0" font-family="Roboto" x="46.24" y="86.45007" style="stroke:rgb(0.0,0.0,0.0);stroke-width:0.175;fill:rgb(0.0,0.0,0.0);opacity:1.0;" transform="rotate(-0.0,46.24,86.45007)">2.0</text>
<line x1="87.0" y1="410.3206" x2="93.0" y2="410.3206" style="stroke:rgb(0.0,0.0,0.0);stroke-width:2.0;opacity:1.0;stroke-linecap:butt" />
<text font-size="12.0" font-family="Roboto" x="43.12" y="416.3206" style="stroke:rgb(0.0,0.0,0.0);stroke-width:0.175;fill:rgb(0.0,0.0,0.0);opacity:1.0;" transform="rotate(-0.0,43.12,416.3206)">-1.0</text>
<line x1="87.0" y1="520.27747" x2="93.0" y2="520.27747" style="stroke:rgb(0.0,0.0,0.0);stroke-width:2.0;opacity:1.0;stroke-linecap:butt" />
<text font-size="12.0" font-family="Roboto" x="43.0" y="526.27747" style="stroke:rgb(0.0,0.0,0.0);stroke-width:0.175;fill:rgb(0.0,0.0,0.0);opacity:1.0;" transform="rotate(-0.0,43.0,526.27747)">-2.0</text>
<polyline points="135.5,80.45007 135.86469,80.45007 136.22937,80.49402 136.59406,80.58179 136.95872,80.71326 137.32341,80.88806 137.6881,81.10614 138.05278,81.36725 138.41745,81.67114 138.78214,82.01764 139.14682,82.406494 139.5115,82.8374 139.87619,83.31024 140.24088,83.82471 140.60556,84.38049 140.97023,84.977356 141.33492,85.61499 141.6996,86.29321 142.06429,87.01172 142.42897,87.77008 142.79364,88.568115 143.15833,89.405396 143.52301,90.2818 143.8877,91.19684 144.25238,92.15027 144.61707,93.14166 144.98175,94.17078 145.34642,95.23718 145.7111,96.340576 146.07579,97.48059 146.44048,98.65686 146.80515,99.86902 147.16983,101.11658 147.53452,102.39929 147.8992,103.7168 148.26389,105.06854 148.62857,106.45422 148.99326,107.87341 149.35793,109.325806 149.72261,110.81079 150.0873,112.328 150.45198,113.8772 150.81665,115.45764 151.18134,117.069214 151.54602,118.71118 151.9107,120.3833 152.27539,122.08508 152.64008,123.81604 153.00476,125.575745 153.36943,127.36365 153.73412,129.17944 154.0988,131.02258 154.46349,132.89252 154.82816,134.78888 155.19284,136.71118 155.55753,138.65881 155.92221,140.63147 156.2869,142.62854 156.65158,144.64954 157.01627,146.69409 157.38094,148.76154 157.74562,150.85147 158.1103,152.96335 158.47499,155.09668 158.83968,157.25098 159.20435,159.42572 159.56903,161.62036 159.93372,163.83441 160.2984,166.06735 160.66309,168.3187 161.02777,170.58786 161.39246,172.87439 161.75713,175.1777 162.12181,177.49731 162.4865,179.83267 162.85117,182.18326 163.21585,184.54858 163.58054,186.92804 163.94522,189.32117 164.3099,191.72739 164.67459,194.14621 165.03928,196.57709 165.40396,199.01947 165.76865,201.47287 166.13332,203.9367 166.498,206.41046 166.86267,208.89359 167.22736,211.38559 167.59204,213.88593 167.95673,216.39404 168.32141,218.90945 168.6861,221.43158 169.05078,223.9599 169.41547,226.4939 169.78015,229.03302 170.14482,231.57678 170.5095,234.12463 170.87419,236.67606 171.23886,239.2305 171.60355,241.78748 171.96823,244.34647 172.33292,246.90692 172.6976,249.46832 173.06229,252.03018 173.42697,254.59198 173.79166,257.1532 174.15633,259.71332 174.52101,262.27185 174.8857,264.82828 175.25037,267.38208 175.61505,269.9328 175.97974,272.4799 176.34442,275.0229 176.7091,277.56128 177.07379,280.0946 177.43848,282.62234 177.80316,285.14404 178.16783,287.65918 178.53252,290.1673 178.8972,292.66794 179.26187,295.1606 179.62656,297.64487 179.99124,300.1202 180.35593,302.5862 180.72061,305.0424 181.0853,307.48828 181.44998,309.9235 181.81467,312.3475 182.17935,314.75992 182.54402,317.16028 182.9087,319.54816 183.27338,321.92316 183.63806,324.2848 184.00275,326.63266 184.36743,328.96637 184.73212,331.28546 185.0968,333.5896 185.46149,335.8783 185.82617,338.15125 186.19086,340.40796 186.55553,342.6481 186.92021,344.87128 187.2849,347.0771 187.64957,349.2652 188.01425,351.43518 188.37894,353.58673 188.74362,355.71942 189.1083,357.83298 189.47299,359.927 189.83768,362.00116 190.20236,364.05508 190.56703,366.0885 190.93172,368.101 191.2964,370.09235 191.66107,372.06213 192.02576,374.01013 192.39044,375.936 192.75513,377.83942 193.11981,379.72015 193.4845,381.57782 193.84918,383.41217 194.21387,385.223 194.57854,387.00995 194.94322,388.77277 195.3079,390.51123 195.67258,392.22504 196.03726,393.91394 196.40195,395.57776 196.76663,397.2162 197.13132,398.829 197.496,400.41602 197.86069,401.977 198.22537,403.51172 198.59006,405.01996 198.95473,406.5016 199.31941,407.9563 199.68408,409.38397 200.04877,410.78445 200.41345,412.1575 200.77814,413.503 201.14282,414.82074 201.5075,416.11057 201.8722,417.37234 202.23688,418.60596 202.60156,419.81122 202.96623,420.98798 203.33092,422.13617 203.6956,423.25565 204.06027,424.34628 204.42496,425.408 204.78964,426.44064 205.15433,427.44415 205.51901,428.41846 205.8837,429.3634 206.24838,430.279 206.61307,431.1651 206.97774,432.02173 207.34242,432.8487 207.7071,433.6461 208.07178,434.41376 208.43646,435.15173 208.80115,435.85992 209.16583,436.5383 209.53052,437.1869 209.8952,437.80566 210.25989,438.3946 210.62457,438.95364 210.98924,439.48288 211.35393,439.98227 211.71861,440.45184 212.08328,440.8916 212.44797,441.30164 212.81265,441.6819 213.17734,442.0324 213.54202,442.35327 213.90671,442.64453 214.2714,442.90625 214.63608,443.13843 215.00076,443.3412 215.36543,443.5146 215.73012,443.6587 216.09479,443.7736 216.45947,443.85938 216.82416,443.91614 217.18884,443.94394 217.55353,443.94293 217.91821,443.91324 218.2829,443.85492 218.64758,443.76813 219.01227,443.653 219.37694,443.50964 219.74162,443.33823 220.10631,443.13885 220.47098,442.91168 220.83566,442.65686 221.20035,442.3745 221.56503,442.06488 221.92972,441.7281 222.2944,441.36426 222.65909,440.97363 223.02376,440.5564 223.38844,440.11267 223.75313,439.6427 224.11781,439.14667 224.4825,438.62476 224.84717,438.07715 225.21185,437.50412 225.57654,436.90582 225.94122,436.2825 226.30591,435.63434 226.6706,434.9616 227.03526,434.26453 227.39995,433.54327 227.76463,432.79816 228.12932,432.02936 228.494,431.23718 228.85869,430.4218 229.22336,429.58356 229.58804,428.7226 229.95273,427.8393 230.31741,426.93384 230.6821,426.00647 231.04677,425.05753 231.41145,424.08725 231.77614,423.09592 232.14082,422.0838 232.50551,421.05118 232.8702,419.99835 233.23486,418.9256 233.59955,417.8332 233.96423,416.7215 234.32892,415.5907 234.6936,414.44116 235.05829,413.2732 235.42296,412.08707 235.78764,410.88312 236.15233,409.66162 236.51701,408.4229 236.8817,407.1673 237.24637,405.89514 237.61105,404.60666 237.97574,403.30225 238.34042,401.98218 238.70511,400.64682 239.0698,399.29648 239.43446,397.93146 239.79915,396.55215 240.16383,395.1588 240.52852,393.75183 240.8932,392.33154 241.25787,390.89822 241.62256,389.45224 241.98724,387.99396 242.35193,386.52368 242.71661,385.04175 243.0813,383.54852 243.44597,382.0443 243.81065,380.5295 244.17534,379.00443 244.54002,377.46942 244.90471,375.9248 245.2694,374.37094 245.63406,372.80817 245.99875,371.23688 246.36343,369.65738 246.72812,368.07 247.0928,366.47516 247.45747,364.8731 247.82216,363.26428 248.18684,361.649 248.55153,360.02753 248.91621,358.40033 249.2809,356.7677 249.64557,355.13 250.01025,353.48758 250.37494,351.84076 250.73962,350.18988 251.10431,348.53534 251.469,346.87744 251.83366,345.21655 252.19835,343.553 252.56303,341.88715 252.92772,340.2193 253.2924,338.5498 253.65707,336.87903 254.02176,335.20734 254.38644,333.53497 254.75113,331.86237 255.11581,330.1898 255.4805,328.5176 255.84517,326.84616 256.20984,325.17578 256.57452,323.50674 256.9392,321.83945 257.3039,320.1742 257.66858,318.51132 258.03326,316.8511 258.39795,315.1939 258.76263,313.54007 259.12732,311.88986 259.492,310.2436 259.8567,308.60165 260.22137,306.96426 260.58606,305.3318 260.95074,303.70453 261.31543,302.0828 261.6801,300.46686 262.04477,298.85706 262.40945,297.25366 262.77414,295.65698 263.13882,294.06732 263.5035,292.48495 263.86816,290.9102 264.23285,289.3433 264.59753,287.78455 264.96222,286.23425 265.3269,284.69266 265.6916,283.16006 266.05627,281.63675 266.42096,280.12292 266.78564,278.61896 267.15033,277.125 267.515,275.64142 267.8797,274.1684 268.2444,272.7062 268.60907,271.2551 268.97375,269.81534 269.33844,268.38715 269.70312,266.9708 270.06778,265.5665 270.43246,264.1745 270.79715,262.795 271.16183,261.42828 271.52652,260.07455 271.8912,258.734 272.25586,257.4069 272.62054,256.0934 272.98523,254.79376 273.3499,253.50818 273.7146,252.23685 274.07928,250.97998 274.44397,249.73776 274.80865,248.51038 275.17334,247.29803 275.53802,246.10092 275.9027,244.91922 276.2674,243.75308 276.63208,242.60269 276.99677,241.46823 277.36145,240.34985 277.72614,239.24774 278.09082,238.16202 278.45547,237.0929 278.82016,236.04047 279.18484,235.00491 279.54953,233.98636 279.9142,232.98492 280.27887,232.00082 280.64355,231.03409 281.00824,230.08493 281.37292,229.15341 281.7376,228.23969 282.1023,227.34384 282.46698,226.46603 282.83167,225.60632 283.19635,224.76483 283.56104,223.94165 283.92572,223.13687 284.2904,222.35062 284.6551,221.58295 285.01978,220.83395 285.38446,220.10373 285.74915,219.3923 286.11383,218.69977 286.4785,218.02621 286.84317,217.3717 287.20786,216.73627 287.57254,216.11996 287.93723,215.52286 288.3019,214.94498 288.66656,214.38638 289.03125,213.8471 289.39594,213.32718 289.76062,212.82666 290.1253,212.34552 290.49,211.88382 290.85468,211.44156 291.21936,211.0188 291.58405,210.61548 291.94873,210.23166 292.31342,209.86731 292.6781,209.52246 293.0428,209.19708 293.40747,208.89117 293.77216,208.60474 294.13684,208.3377 294.50153,208.09012 294.86618,207.86194 295.23087,207.6531 295.59555,207.4636 295.96024,207.29343 296.32492,207.14249 296.68958,207.01077 297.05426,206.89822 297.41895,206.80481 297.78363,206.73044 298.14832,206.67511 298.513,206.6387 298.8777,206.62119 299.24237,206.6225 299.60706,206.64255 299.97174,206.68124 300.33643,206.73856 300.7011,206.81436 301.0658,206.9086 301.43048,207.02115 301.79517,207.15198 302.15985,207.3009 302.52454,207.4679 302.8892,207.65286 303.25388,207.85562 303.61856,208.07614 303.98325,208.31427 304.34793,208.56992 304.71262,208.84293 305.07727,209.13321 305.44196,209.44064 305.80664,209.7651 306.17133,210.10645 306.536,210.46454 306.9007,210.83923 307.26538,211.23044 307.63007,211.63797 307.99475,212.0617 308.35944,212.50146 308.72412,212.95715 309.0888,213.42859 309.4535,213.91559 309.81818,214.41806 310.18286,214.93582 310.54755,215.46866 310.91223,216.01648 311.2769,216.5791 311.64157,217.15631 312.00626,217.74799 312.37094,218.35391 312.73563,218.97397 313.1003,219.60794 313.46497,220.25565 313.82965,220.9169 314.19434,221.59155 314.55902,222.27939 314.9237,222.98022 315.2884,223.69388 315.65308,224.42017 316.01776,225.15887 316.38245,225.90979 316.74713,226.67276 317.11182,227.4476 317.4765,228.23404 317.8412,229.03192 318.20587,229.84106 318.57056,230.6612 318.93524,231.49219 319.2999,232.33377 319.66458,233.18579 320.02927,234.04797 320.39395,234.92017 320.75864,235.80212 321.12332,236.69366 321.48798,237.59451 321.85266,238.50452 322.21735,239.42343 322.58203,240.35104 322.94672,241.28714 323.3114,242.23148 323.6761,243.18387 324.04077,244.14407 324.40546,245.11185 324.77014,246.08704 325.13483,247.06934 325.4995,248.0586 325.8642,249.05453 326.22888,250.05695 326.59357,251.06564 326.95825,252.08032 327.32294,253.10083 327.6876,254.12692 328.05228,255.15833 328.41696,256.1949 328.78165,257.23633 329.14633,258.28244 329.51102,259.33298 329.87567,260.38776 330.24036,261.4465 330.60504,262.509 330.96973,263.57507 331.3344,264.6444 331.6991,265.71686 332.06378,266.79214 332.42847,267.87006 332.79315,268.95038 333.15784,270.03287 333.52252,271.1173 333.8872,272.2035 334.2519,273.29117 334.61658,274.38013 334.98126,275.47015 335.34595,276.561 335.7106,277.6525 336.0753,278.74435 336.43997,279.8364 336.80466,280.92838 337.16934,282.0201 337.53403,283.1114 337.89868,284.20193 338.26337,285.2916 338.62805,286.3801 338.99274,287.4673 339.35742,288.55292 339.7221,289.63678 340.0868,290.7187 340.45148,291.7984 340.81616,292.8757 341.18085,293.95044 341.54553,295.02237 341.91022,296.09128 342.2749,297.15698 342.6396,298.2193 343.00427,299.27798 343.36896,300.3329 343.73364,301.38376 344.0983,302.43045 344.46298,303.47275 344.82767,304.51047 345.19235,305.54343 345.55704,306.57138 345.92172,307.59424 346.28638,308.61172 346.65106,309.62372 347.01575,310.63 347.38043,311.6304 347.74512,312.6248 348.1098,313.61288 348.4745,314.5946 348.83917,315.56976 349.20386,316.53815 349.56854,317.49963 349.93323,318.45404 350.2979,319.40118 350.6626,320.34094 351.02728,321.27313 351.39194,322.1976 351.75662,323.11417 352.1213,324.0227 352.486,324.92307 352.85068,325.8151 353.21536,326.69867 353.58005,327.57358 353.94473,328.43976 354.30942,329.297 354.6741,330.1452 355.0388,330.98422 355.40344,331.81393 355.76813,332.63422 356.1328,333.44492 356.4975,334.2459 356.86218,335.0371 357.22687,335.81836 357.59155,336.58954 357.95624,337.35052 358.32092,338.10126 358.6856,338.84155 359.0503,339.57138 359.41495,340.2906 359.77963,340.99905 360.14432,341.69672 360.509,342.38342 360.8737,343.05917 361.23837,343.7238 361.60306,344.3772 361.96774,345.01935 362.33243,345.65012 362.6971,346.2694 363.0618,346.8772 363.42645,347.47336 363.79114,348.05783 364.15582,348.63055 364.5205,349.19144 364.8852,349.74042 365.24988,350.27747 365.61456,350.80246 365.97925,351.31537 366.34393,351.81616 366.70862,352.30475 367.0733,352.7811 367.438,353.24515 367.80264,353.69684 368.16733,354.13617 368.532,354.5631 368.8967,354.97754 369.26138,355.37946 369.62607,355.7689 369.99075,356.14575 370.35544,356.51 370.72012,356.86163 371.0848,357.20068 371.4495,357.52704 371.81415,357.8407 372.17883,358.14172 372.54352,358.43 372.9082,358.70563 373.2729,358.96848 373.63757,359.21863 374.00226,359.45605 374.36694,359.6808 374.73163,359.89276 375.0963,360.09204 375.461,360.27863 375.82565,360.4525 376.19034,360.61374 376.55502,360.7623 376.9197,360.8982 377.2844,361.02148 377.64908,361.13214 378.01376,361.2303 378.37845,361.31583 378.74313,361.38885 379.10782,361.44943 379.4725,361.49756 379.8372,361.53326 380.20184,361.55658 380.56653,361.5676 380.9312,361.56635 381.2959,361.5528 381.66058,361.5271 382.02527,361.4893 382.38995,361.4394 382.75464,361.37744 383.11932,361.30353 383.484,361.2177 383.8487,361.12006 384.21335,361.01062 384.57803,360.88947 384.94272,360.75668 385.3074,360.6123 385.6721,360.45642 386.03677,360.28912 386.40146,360.11047 386.76614,359.9206 387.13083,359.71948 387.4955,359.50726 387.8602,359.28403 388.22485,359.04987 388.58954,358.8048 388.95422,358.54907 389.3189,358.2826 389.6836,358.0056 390.04828,357.7181 390.41296,357.42023 390.77765,357.11212 391.14233,356.79376 391.50702,356.4654 391.8717,356.127 392.23636,355.77875 392.60104,355.42078 392.96573,355.0531 393.3304,354.6759 393.6951,354.2893 394.05978,353.89337 394.42447,353.48822 394.78915,353.07397 395.15384,352.65082 395.51852,352.21875 395.8832,351.778 396.2479,351.3286 396.61255,350.87076 396.97723,350.40454 397.34192,349.93005 397.7066,349.4475 398.0713,348.95694 398.43597,348.45853 398.80066,347.9524 399.16534,347.43866 399.53003,346.91748 399.8947,346.38895 400.2594,345.85324 400.62405,345.31046 400.98874,344.76074 401.35342,344.20425 401.7181,343.6411 402.0828,343.0714 402.44748,342.4954 402.81216,341.9131 403.17685,341.3247 403.54153,340.7304 403.90622,340.13025 404.2709,339.5244 404.63556,338.9131 405.00024,338.29633 405.36493,337.67435 405.7296,337.04727 406.0943,336.41522 406.45898,335.77838 406.82367,335.1369 407.18835,334.49084 407.55304,333.84045 407.91772,333.18585 408.2824,332.52716 408.64706,331.86453 409.01175,331.19812 409.37643,330.52808 409.74112,329.85455 410.1058,329.1777 410.4705,328.49765 410.83517,327.81454 411.19986,327.12854 411.56454,326.43982 411.92923,325.74847 412.2939,325.0547 412.6586,324.3586 413.02325,323.66034 413.38794,322.9601 413.75262,322.258 414.1173,321.55417 414.482,320.8488 414.84668,320.142 415.21136,319.43393 415.57605,318.72473 415.94073,318.01456 416.30542,317.30356 416.6701,316.5919 417.03476,315.87967 417.39944,315.16702 417.76413,314.45416 418.1288,313.74118 418.4935,313.02823 418.8582,312.31543 419.22287,311.603 419.58755,310.891 419.95224,310.1796 420.31693,309.46893 420.6816,308.75916 421.04626,308.05038 421.41095,307.34277 421.77563,306.63647 422.14032,305.93158 422.505,305.22827 422.8697,304.52664 423.23438,303.82687 423.59906,303.12906 423.96375,302.43335 424.32843,301.73984 424.6931,301.0487 425.05777,300.36008 425.42245,299.67407 425.78714,298.99078 426.15182,298.31036 426.5165,297.63297 426.8812,296.95868 427.24588,296.28763 427.61057,295.61993 427.97525,294.95575 428.33994,294.29517 428.70462,293.6383 429.0693,292.98526 429.43396,292.3362 429.79865,291.69122 430.16333,291.0504 430.528,290.41388 430.8927,289.7818 431.2574,289.1542 431.62207,288.53125 431.98676,287.91302 432.35144,287.29962 432.71613,286.6912 433.0808,286.0878 433.44547,285.48956 433.81015,284.89655 434.17484,284.3089 434.53952,283.72668 434.9042,283.15002 435.2689,282.57898 435.63358,282.01367 435.99826,281.4542 436.36295,280.9006 436.72763,280.35303 437.09232,279.81152 437.45697,279.27618 437.82166,278.7471 438.18634,278.22437 438.55103,277.70804 438.9157,277.19818 439.2804,276.69492 439.64508,276.1983 440.00977,275.7084 440.37445,275.22528 440.73914,274.74902 441.10382,274.27972 441.46848,273.8174 441.83316,273.36215 442.19785,272.91403 442.56253,272.4731 442.92722,272.03946 443.2919,271.6131 443.6566,271.1941 444.02127,270.78253 444.38596,270.37845 444.75064,269.9819 445.11533,269.59293 445.48,269.2116 445.84467,268.83795 446.20935,268.47202 446.57404,268.11386 446.93872,267.76352 447.3034,267.42102 447.6681,267.0864 448.03278,266.75974 448.39746,266.441 448.76215,266.13028 449.12683,265.82758 449.49152,265.53296 449.85617,265.2464 450.22086,264.96796 450.58554,264.69766 450.95023,264.43552 451.3149,264.18155 451.6796,263.9358 452.04428,263.69824 452.40897,263.46893 452.77365,263.2479 453.13834,263.0351 453.50302,262.83057 453.86768,262.63434 454.23236,262.4464 454.59705,262.26675 454.96173,262.09543 455.32642,261.93237 455.6911,261.77765 456.0558,261.63123 456.42047,261.4931 456.78516,261.36328 457.14984,261.24176 457.51453,261.1285 457.87918,261.02353 458.24387,260.92685 458.60855,260.8384 458.97324,260.7582 459.33792,260.68622 459.7026,260.62244 460.0673,260.56686 460.43198,260.51947 460.79666,260.4802 461.16135,260.44907 461.52603,260.42603 461.89072,260.41107 462.25537,260.40417 462.62006,260.40527 462.98474,260.41437 463.34943,260.43143 463.7141,260.4564 464.0788,260.48926 464.44348,260.52997 464.80817,260.5785 465.17285,260.6348 465.53754,260.69882 465.90222,260.77054 466.26688,260.84988 466.63156,260.93686 466.99625,261.03137 467.36093,261.1334 467.72562,261.2429 468.0903,261.35977 468.455,261.48404 468.81967,261.61557 469.18436,261.7544 469.54904,261.9004 469.91373,262.05353 470.27838,262.21375 470.64307,262.38098 471.00775,262.55518 471.37244,262.73627 471.73712,262.9242 472.1018,263.1189 472.4665,263.3203 472.83118,263.52838 473.19586,263.743 473.56055,263.96417 473.92523,264.19174 474.2899,264.4257 474.65457,264.66595 475.01926,264.91245 475.38394,265.16507 475.74863,265.42377 476.1133,265.6885 476.478,265.95914 476.84268,266.23566 477.20737,266.5179 477.57205,266.80588 477.93674,267.0995 478.30142,267.39862 478.66608,267.7032 479.03076,268.01315 479.39545,268.3284 479.76013,268.64886 480.12482,268.97443 480.4895,269.30505 480.8542,269.64062 481.21887,269.98108 481.58356,270.32632 481.94824,270.67624 482.31293,271.0308 482.67758,271.38983 483.04227,271.75333 483.40695,272.12115 483.77164,272.49323 484.13632,272.86945 484.501,273.24976 484.8657,273.63403 485.23038,274.02222 485.59506,274.41418 485.95975,274.80984 486.32443,275.2091 486.6891,275.61188 487.05377,276.0181 487.41846,276.4276 487.78314,276.8404 488.14783,277.2563 488.5125,277.6752 488.8772,278.0971 489.24188,278.52182 489.60657,278.9493 489.97125,279.37946 490.33594,279.81216 490.70062,280.24734 491.06528,280.68488 491.42996,281.1247 491.79465,281.5667 492.15933,282.01077 492.52402,282.45682 492.8887,282.9048 493.2534,283.3545 493.61807,283.80594 493.98276,284.25894 494.34744,284.71347 494.71213,285.1694 495.07678,285.62662 495.44147,286.08505 495.80615,286.54462 496.17084,287.0052 496.53552,287.46667 496.9002,287.92902 497.2649,288.39206 497.62958,288.85574 497.99426,289.31995 498.35895,289.78464 498.72363,290.24963 499.0883,290.7149 499.45297,291.18036 499.81766,291.64584 500.18234,292.11133 500.54703,292.5767 500.9117,293.04184 501.2764,293.50668 501.64108,293.97113 502.00577,294.4351 502.37045,294.8985 502.73514,295.3612 503.0998,295.82318 503.46448,296.28427 503.82916,296.74445 504.19385,297.2036 504.55853,297.66165 504.92322,298.1185 505.2879,298.57404 505.6526,299.02823 506.01727,299.48096 506.38196,299.93213 506.74664,300.38168 507.11133,300.8295 507.47598,301.27554 507.84067,301.71973 508.20535,302.16193 508.57004,302.60208 508.93472,303.04013 509.2994,303.47598 509.6641,303.90955 510.02878,304.34076 510.39346,304.76953 510.75815,305.1958 511.12283,305.61948 511.4875,306.0405 511.85217,306.45877 512.21686,306.87424 512.58154,307.28683 512.9462,307.69647 513.3109,308.1031 513.6756,308.50662 514.0403,308.90698 514.40497,309.30414 514.76965,309.69797 515.13434,310.08844 515.499,310.47546 515.86365,310.85904 516.2284,311.239 516.593,311.6154 516.95776,311.9881 517.3224,312.35706 517.68713,312.7222 518.05176,313.0835 518.4165,313.44086 518.7811,313.79428 519.1459,314.14365 519.5105,314.48892 519.8752,314.83008 520.23987,315.16705 520.60455,315.4998 520.96924,315.82822 521.3339,316.15228 521.6986,316.472 522.0633,316.78726 522.428,317.09805 522.79266,317.4043 523.15735,317.70596 523.52203,318.00305 523.8867,318.29544 524.25134,318.58316 524.6161,318.86615 524.9807,319.14435 525.34546,319.41772 525.7101,319.68628 526.0748,319.94992 526.43945,320.20865 526.8042,320.46243 527.1688,320.7112 527.53357,320.95502 527.8982,321.19376 528.2629,321.4274 528.62756,321.65598 528.99225,321.8794 529.35693,322.0977 529.7216,322.3108 530.0863,322.5187 530.451,322.7214 530.8157,322.91885 531.18036,323.11102 531.54504,323.29794 531.90967,323.47952 532.2744,323.65582 532.63904,323.8268 533.0038,323.99243 533.3684,324.15268 533.73315,324.3076 534.0978,324.45712 534.4625,324.60126 534.82715,324.74 535.1919,324.87332 535.5565,325.00125 535.9212,325.12378 536.2859,325.24088 536.6506,325.35257 537.01526,325.45883 537.37994,325.55966 537.7446,325.65506 538.1093,325.74506 538.474,325.82962 538.8387,325.90878 539.20337,325.98254 539.56805,326.05087 539.93274,326.11383 540.29736,326.1714 540.6621,326.22357 541.02673,326.2704 541.3915,326.31183 541.7561,326.34793 542.12085,326.3787 542.4855,326.40414 542.8502,326.4243 543.21484,326.43915 543.5796,326.44873 543.9442,326.45306 544.3089,326.45215 544.6736,326.446 545.03827,326.43472 545.40295,326.41824 545.76764,326.3966 546.1323,326.36984 546.497,326.33798 546.8617,326.30106 547.2264,326.2591 547.59106,326.2121 547.95575,326.1601 548.32043,326.10315 548.68506,326.04126 549.0498,325.9745 549.4144,325.90283 549.7792,325.82635 550.1438,325.74506 550.50854,325.659 550.87317,325.56824 551.2379,325.47275 551.60254,325.3726 551.9673,325.26785 552.3319,325.1585 552.6966,325.04462 553.0613,324.9262 553.42596,324.80334 553.79065,324.6761 554.15533,324.54443 554.52,324.40845 554.8847,324.26816 555.2494,324.12363 555.6141,323.97488 555.97876,323.822 556.34344,323.665 556.7081,323.50394 557.07275,323.33887 557.4375,323.1698 557.8021,322.99686 558.1669,322.82 558.5315,322.63934 558.89624,322.45493 559.26086,322.26678 559.6256,322.07498 559.99023,321.87955 560.355,321.68057 560.7196,321.4781 561.0843,321.27216 561.449,321.0628 561.81366,320.85013 562.17834,320.63416 562.543,320.41495 562.9077,320.19257 563.2724,319.96704 563.6371,319.73846 564.0018,319.5069 564.36646,319.27237 564.7311,319.03497 565.0958,318.7947 565.46045,318.5517 565.8252,318.30597 566.1898,318.05756 566.55457,317.80658 566.9192,317.55307 567.28394,317.2971 567.64856,317.03867 568.0133,316.7779 568.3779,316.51486 568.7426,316.24957 569.1073,315.98212 569.472,315.71255 569.8367,315.44095 570.20135,315.16736 570.56604,314.89185 570.9307,314.6145 571.2954,314.33533 571.6601,314.05444 572.0248,313.77185 572.38947,313.4877 572.75415,313.20197 573.1188,312.91476 573.4835,312.62613 573.84814,312.33615 574.2129,312.0449 574.5775,311.75238 574.94226,311.45874 575.3069,311.16397 575.67163,310.86816 576.03625,310.57138 576.401,310.27368 576.7656,309.97513 577.1303,309.67578 577.495,309.3757 577.8597,309.07498 578.22437,308.77368 578.58905,308.4718 578.95374,308.16946 579.3184,307.86673 579.6831,307.56363 580.0478,307.26022 580.4125,306.95663 580.77716,306.65283 581.14185,306.34897 581.5065,306.04504 581.8712,305.74115 582.23584,305.43732 582.6006,305.13364 582.9652,304.83014 583.32996,304.52692 583.6946,304.224 584.0593,303.92148 584.42395,303.6194 584.7887,303.3178 585.1533,303.01675 585.518,302.71634 585.8827,302.4166 586.2474,302.11755 586.61206,301.81934 586.97675,301.52194 587.34143,301.22543 587.7061,300.9299 588.0708,300.63535 588.4355,300.3419 588.8002,300.04953 589.16486,299.75836 589.52954,299.4684 589.89417,299.17975 590.2589,298.89243 590.62354,298.60648 590.9883,298.32196 591.3529,298.03894 591.71765,297.75745 592.0823,297.47757 592.447,297.1993 592.81165,296.92276 593.1764,296.64795 593.541,296.3749 593.9057,296.10373 594.2704,295.8344 594.6351,295.56702 594.99976,295.3016 595.36444,295.03824 595.7291,294.77692 596.0938,294.5177 596.4585,294.26065 596.8232,294.00577 597.18787,293.75317 597.5525,293.50284 597.91724,293.25482 598.28186,293.00916 598.6466,292.76593 599.0112,292.52512 599.376,292.2868 599.7406,292.051 600.10535,291.81775 600.47,291.58713 600.8347,291.3591 601.19934,291.13376 601.5641,290.91113 601.9287,290.69122 602.2934,290.4741 602.6581,290.25974 603.02277,290.04825 603.38745,289.83963 603.75214,289.63388 604.1168,289.4311 604.4815,289.23123 604.8462,289.03436 605.2109,288.8405 605.57556,288.64972 605.9402,288.46198 606.30493,288.27734 606.66956,288.09583 607.0343,287.91742 607.399,287.74222 607.7636,287.5702 608.1283,287.40137 608.493,287.2358 608.85767,287.0735 609.22235,286.91443 609.58704,286.75867 609.9517,286.60623 610.3164,286.45712 610.6811,286.31134 611.0458,286.16895 611.41046,286.02994 611.77515,285.89432 612.13983,285.7621 612.5045,285.6333 612.8692,285.50797 613.2339,285.38605 613.5986,285.26758 613.96326,285.15262 614.32794,285.0411 614.6926,284.9331 615.0573,284.82858 615.422,284.72757 615.7867,284.63007 616.1513,284.53607 616.516,284.44562 616.8807,284.35867 617.24536,284.2753 617.61005,284.1954 617.97473,284.11908 618.3394,284.0463 618.7041,283.97705 619.0688,283.91132 619.4335,283.84915 619.79816,283.79053 620.16284,283.73544 620.5275,283.68387 620.8922,283.63583 621.2569,283.59134 621.6216,283.55038 621.98627,283.5129 622.35095,283.47897 622.71564,283.44852 623.0803,283.4216 623.445,283.39813 623.8097,283.37817 624.1744,283.36166 624.539,283.34863 624.9037,283.33908 625.2684,283.33292 625.63306,283.33023 625.99774,283.33093 626.3624,283.33505 626.7271,283.34256 627.0918,283.35342 627.4565,283.36768 627.82117,283.38525 628.18585,283.40616 628.55054,283.4304 628.9152,283.45792 629.2799,283.4887 629.6446,283.52277 630.0093,283.56006 630.37396,283.60056 630.73865,283.6443 631.10333,283.69116 631.468,283.7412 631.8327,283.7944 632.1974,283.85068 632.562,283.91006 632.9267,283.9725 633.2914,284.038 633.65607,284.1065 634.02075,284.17798 634.38544,284.25244 634.7501,284.32983 635.1148,284.41016 635.4795,284.49335 635.8442,284.5794 636.20886,284.6683 636.57355,284.75998 636.93823,284.85443 637.3029,284.95163 637.6676,285.05154 638.0323,285.15414 638.397,285.2594 638.76166,285.36728 639.12634,285.47772 639.491,285.59073 639.8557,285.70627 640.2204,285.8243 640.5851,285.94482 640.9497,286.06772 641.3144,286.19305 641.6791,286.3207 642.04376,286.4507 642.40845,286.58298 642.77313,286.71753 643.1378,286.85428 643.5025,286.9932 643.8672,287.13428 644.2319,287.2775 644.59656,287.42276 644.96124,287.57004 645.3259,287.71936 645.6906,287.8706 646.0553,288.0238 646.42,288.17886 646.78467,288.3358 647.14935,288.4945 647.51404,288.655 647.8787,288.81723 648.2434,288.98117 648.6081,289.14673 648.9727,289.31393 649.3374,289.4827 649.7021,289.65298 650.0668,289.8248 650.43146,289.99805 650.79614,290.1727 651.1608,290.34875 651.5255,290.52612 651.8902,290.7048 652.2549,290.8847 652.61957,291.06583 652.98425,291.24814 653.34894,291.43158 653.7136,291.6161 654.0783,291.80167 654.443,291.98825 654.8077,292.1758 655.17236,292.36426 655.53705,292.55362 655.90173,292.7438 656.2664,292.9348 656.6311,293.12656 656.9958,293.31906 657.3604,293.5122 657.7251,293.706 658.0898,293.9004 658.45447,294.0953 658.81915,294.29077 659.18384,294.4867 659.5485,294.68304 659.9132,294.8798 660.2779,295.07687 660.6426,295.2743 661.00726,295.47195 661.37195,295.66986 661.73663,295.86795 662.1013,296.06616 662.466,296.2645 662.8307,296.46292 663.1954,296.66135 663.56006,296.85974 663.92474,297.0581 664.2894,297.25638 664.6541,297.45453 665.0188,297.6525 665.3834,297.85025 665.7481,298.04776 666.1128,298.24496 666.4775,298.44186 666.84216,298.6384 667.20685,298.83453 667.57153,299.0302 667.9362,299.22543 668.3009,299.42014 668.6656,299.6143 669.0303,299.80783 669.39496,300.00076 669.75964,300.19305 670.1243,300.38464 670.489,300.57547 670.8537,300.76556 671.2184,300.95483 671.58307,301.14328 671.94775,301.33084 672.31244,301.5175 672.6771,301.70322 673.0418,301.88797 673.4065,302.07172 673.7711,302.2544 674.1358,302.43604 674.5005,302.61655 674.8652,302.79593 675.22986,302.97415 675.59454,303.15118 675.9592,303.32697 676.3239,303.5015 676.6886,303.67474 677.0533,303.84665 677.41797,304.0172 677.78265,304.1864 678.14734,304.3542 678.512,304.52054 678.8767,304.68542 679.2414,304.84882 679.6061,305.01068 679.97076,305.171 680.33545,305.32977 680.70013,305.4869 681.0648,305.64246 681.4295,305.79636 681.7941,305.94858 682.1588,306.0991 682.5235,306.2479 682.8882,306.39496 683.25287,306.54028 683.61755,306.68378 683.98224,306.8255 684.3469,306.96536 684.7116,307.10336 685.0763,307.23953 685.441,307.37378 685.80566,307.50613 686.17035,307.63654 686.53503,307.76498 686.8997,307.89148 687.2644,308.016 687.6291,308.1385 687.9938,308.25897 688.35846,308.37744 688.72314,308.49384 689.0878,308.60815 689.4525,308.7204 689.8172,308.83054 690.1818,308.93857 690.5465,309.04446 690.9112,309.14822 691.2759,309.24985 691.64056,309.3493 692.00525,309.4466 692.36993,309.5417 692.7346,309.63458 693.0993,309.72525 693.464,309.81372 693.8287,309.89996 694.19336,309.98398 694.55804,310.06573 694.9227,310.14526 695.2874,310.2225 695.6521,310.29752 696.0168,310.37024 696.3815,310.44067 696.74615,310.50882 697.11084,310.5747 697.4755,310.63828 697.8402,310.69955 698.20483,310.75854 698.5695,310.81522 698.9342,310.8696 699.2989,310.92166 699.6636,310.9714 700.02826,311.01886 700.39294,311.064 700.7576,311.1068 701.1223,311.14734 701.487,311.18552 701.8517,311.2214 702.2164,311.255 702.58105,311.2863 702.94574,311.31525 703.3104,311.34192 703.6751,311.3663 704.0398,311.3884 704.4045,311.40817 704.76917,311.4257 705.13385,311.44092 705.49854,311.4539 705.8632,311.46457 706.2279,311.473 706.5925,311.4792 706.9572,311.4831 707.3219,311.4848 707.6866,311.48425 708.0513,311.4815 708.41595,311.47653 708.78064,311.46933 709.1453,311.45996 709.51,311.44843 709.8747,311.4347 710.2394,311.4188 710.60406,311.40076 710.96875,311.38055 711.33344,311.35825 711.6981,311.33383 712.0628,311.3073 712.4275,311.27872 712.7922,311.24802 713.15686,311.21527 713.52155,311.18048 713.8862,311.14365 714.2509,311.10483 714.61554,311.064 714.9802,311.02115 715.3449,310.97638 715.7096,310.92963 716.0743,310.88095 716.43896,310.83035 716.80365,310.77783 717.16833,310.72345 717.533,310.6672 717.8977,310.60913 718.2624,310.5492 718.6271,310.48746 718.99176,310.42395 719.35645,310.35864 719.7211,310.2916 720.0858,310.2228 720.4505,310.15234 720.8152,310.08017 721.1799,310.00632 721.54456,309.93082 721.90924,309.8537 722.2739,309.77496 722.6386,309.69467 723.00323,309.6128 723.3679,309.5294 723.7326,309.44446 724.0973,309.35806 724.462,309.27017 724.82666,309.18082 725.19135,309.0901 725.556,308.99792 725.9207,308.9044 726.2854,308.80948 726.6501,308.7133 727.0148,308.61575 727.37946,308.51694 727.74414,308.4169 728.1088,308.3156 728.4735,308.2131 728.8382,308.10944 729.2029,308.0046 729.56757,307.89865 729.93225,307.7916 730.29694,307.68347 730.6616,307.57425 731.02625,307.46405 731.3909,307.3528 731.7556,307.24063 732.1203,307.12747 732.485,307.0134 732.8497,306.89844 733.21436,306.7826 733.57904,306.66592 733.9437,306.54843 734.3084,306.43015 734.6731,306.3111 735.0378,306.1913 735.40247,306.0708 735.76715,305.94962 736.13184,305.8278 736.4965,305.70532 736.8612,305.58224 737.2259,305.45862 737.5906,305.3344 737.95526,305.2097 738.31995,305.08447 738.68463,304.9588 739.0493,304.83267 739.41394,304.70615 739.7786,304.57922 740.1433,304.45193 740.508,304.3243 740.8727,304.19638 741.23737,304.06818 741.60205,303.9397 741.96674,303.811 742.3314,303.68213 742.6961,303.55307 743.0608,303.42386 743.4255,303.29453 743.79016,303.1651 744.15485,303.0356 744.51953,302.90607 744.8842,302.77652 745.2489,302.64697 745.6136,302.51746 745.9783,302.38803 746.34296,302.25867 746.70764,302.12943 747.0723,302.0003 747.43695,301.87137 747.80164,301.7426 748.1663,301.61407 748.531,301.48575 748.8957,301.35773 749.2604,301.22995 749.62506,301.1025 749.98975,300.9754 750.35443,300.84866 750.7191,300.72232 751.0838,300.59634 751.4485,300.47083 751.8132,300.34576 752.17786,300.2212 752.54254,300.0971 752.9072,299.97354 753.2719,299.85052 753.6366,299.7281 754.0013,299.60626 754.36597,299.48502 754.73065,299.3644 755.09534,299.24448 755.46,299.1252 755.82465,299.00665 756.18933,298.88882 756.554,298.77173 756.9187,298.6554 757.2834,298.53986 757.6481,298.4251 758.01276,298.3112 758.37744,298.19812 758.7421,298.0859 759.1068,297.97458 759.4715,297.86414 759.8362,297.75464 760.20087,297.64606 760.56555,297.53845 760.93024,297.4318 761.2949,297.32614 761.6596,297.2215 762.0243,297.1179 762.389,297.01532 762.75366,296.91382 763.11835,296.8134 763.48303,296.71402 763.84766,296.61578 764.21234,296.51868 764.577,296.4227 764.9417,296.32788 765.3064,296.23422 765.6711,296.14172 766.03577,296.05045 766.40045,295.9604 766.76514,295.87155 767.1298,295.78394 767.4945,295.69757 767.8592,295.61246 768.2239,295.52866 768.58856,295.4461 768.95325,295.36487 769.31793,295.2849 769.6826,295.2063 770.0473,295.12903 770.412,295.05307 770.7767,294.9785 771.14136,294.90524 771.50604,294.83337 771.8707,294.7629 772.23535,294.6938 772.60004,294.6261 772.9647,294.5598 773.3294,294.49493 773.6941,294.43146 774.0588,294.36942 774.42346,294.3088 774.78815,294.24966 775.15283,294.19196 775.5175,294.13568 775.8822,294.0809 776.2469,294.02756 776.6116,293.9757 776.97626,293.92532 777.34094,293.8764 777.7056,293.82898 778.0703,293.78302 778.435,293.7386 778.7997,293.69562 779.16437,293.65417 779.52905,293.61423 779.89374,293.57574 780.25836,293.53882 780.62305,293.50336 780.98773,293.46942 781.3524,293.43698 781.7171,293.40607 782.0818,293.37665 782.4465,293.34872 782.81116,293.32233 783.17584,293.29745 783.5405,293.27408 783.9052,293.2522 784.2699,293.23184 784.6346,293.21295 784.99927,293.1956 785.36395,293.17975 785.72864,293.16537 786.0933,293.1525 786.458,293.1411 786.8227,293.13123 787.1874,293.1228 787.55206,293.11588 787.91675,293.11044 788.28143,293.10645 788.64606,293.10394 789.01074,293.10287 789.3754,293.1033 789.7401,293.10513 790.1048,293.10843 790.4695,293.1132 790.83417,293.11935 791.19885,293.12695 791.56354,293.13596 791.9282,293.1464 792.2929,293.1582 792.6576,293.17142 793.0223,293.18604 793.38696,293.20203 793.75165,293.2194 794.11633,293.23813 794.481,293.2582 794.8457,293.27963 795.2104,293.3024 795.5751,293.32648 795.93976,293.35187 796.30444,293.3786 796.66907,293.4066 797.03375,293.43588 797.39844,293.46646 797.7631,293.49826 798.1278,293.53134 798.4925,293.56567 798.8572,293.60123 799.22186,293.638 799.58655,293.67596 799.95123,293.71512 800.3159,293.75546 800.6806,293.797 801.0453,293.83966 801.41,293.88345 801.77466,293.9284 802.13934,293.97446 802.504,294.02164 802.8687,294.0699 803.2334,294.1192 803.5981,294.1696 803.96277,294.221 804.32745,294.2735 804.69214,294.32697 805.05676,294.38147 805.42145,294.43695 805.78613,294.4934 806.1508,294.5508 806.5155,294.60916 806.8802,294.66846 807.2449,294.72867 807.60956,294.78976 807.97424,294.85175 808.3389,294.91458 808.7036,294.9783 809.0683,295.04282 809.433,295.1082 809.79767,295.17435 810.16235,295.24127 810.52704,295.309 810.8917,295.37747 811.2564,295.44666 811.6211,295.5166 811.9858,295.58722 812.35046,295.65854 812.71515,295.73053 813.0798,295.80316 813.44446,295.87643 813.80914,295.95032 814.1738,296.0248 814.5385,296.09988 814.9032,296.17554 815.2679,296.25174 815.63257,296.32846 815.99725,296.40573 816.36194,296.48346 816.7266,296.56168 817.0913,296.64038 817.456,296.7195 817.8207,296.79907 818.18536,296.87903 818.55005,296.9594 818.91473,297.04016 819.2794,297.12125 819.6441,297.2027 820.0088,297.28445 820.3735,297.36652 820.73816,297.44888 821.10284,297.5315 821.46747,297.61438 821.83215,297.69748 822.19684,297.78082 822.5615,297.86435 822.9262,297.94806 823.2909,298.03192 823.6556,298.11597 824.02026,298.2001 824.38495,298.28436 824.74963,298.36874 825.1143,298.4532 825.479,298.5377 825.8437,298.62222 826.2084,298.70682 826.57306,298.79138 826.93774,298.87598 827.3024,298.9605 827.6671,299.04504 828.0318,299.1295 828.3965,299.21387 828.76117,299.29816 829.12585,299.38232 829.49054,299.4664 829.85516,299.55032 830.21985,299.6341 830.58453,299.71768 830.9492,299.8011 831.3139,299.88428 831.6786,299.96725 832.0433,300.05 832.40796,300.13248 832.77264,300.21472 833.1373,300.29666 833.502,300.3783 833.8667,300.45963 834.2314,300.54062 834.59607,300.62128 834.96075,300.70157 835.32544,300.7815 835.6901,300.86105 836.0548,300.9402 836.4195,301.0189 836.7842,301.0972 837.14886,301.17505 837.51355,301.25244 837.8782,301.32935 838.24286,301.4058 838.60754,301.48172 838.9722,301.55713 839.3369,301.63205 839.7016,301.7064 840.0663,301.7802 840.43097,301.85345 840.79565,301.92612 841.16034,301.9982 841.525,302.06967 841.8897,302.14053 842.2544,302.2108 842.6191,302.28036 842.98376,302.34933 843.34845,302.41763 843.71313,302.48526 844.0778,302.5522 844.4425,302.61844 844.8072,302.684 845.1719,302.74884 845.53656,302.81296 845.90125,302.87634 846.26587,302.93896 846.63055,303.00085 846.99524,303.06198 847.3599,303.1223 847.7246,303.1819 848.0893,303.24066 848.454,303.29865 848.81866,303.35583 849.18335,303.41217 849.54803,303.4677 849.9127,303.5224 850.2774,303.57626 850.6421,303.6293 851.0068,303.68146 851.37146,303.73276 851.73615,303.78317 852.1008,303.83273 852.4655,303.8814 852.8302,303.92917 853.1949,303.97607 853.5596,304.02206 853.92426,304.06714 854.2889,304.1113 854.65356,304.15457 855.01825,304.1969 855.38293,304.23828 855.7476,304.27875 856.1123,304.3183 856.477,304.35687 856.8417,304.39453 857.20636,304.43124 857.57104,304.46698 857.9357,304.50177 858.3004,304.53558 858.6651,304.56845 859.0298,304.60034 859.3945,304.6313 859.75916,304.66125 860.12384,304.69025 860.4885,304.71823 860.8532,304.74527 861.2179,304.77133 861.5826,304.79642 861.94727,304.8205 862.31195,304.8436 862.6766,304.86572 863.04126,304.88687 863.40594,304.90704 863.7706,304.9262 864.1353,304.9444 864.5,304.96158" style="stroke:rgb(134.89499,206.04001,235.11);stroke-width:3.0;opacity:1.0;stroke-linecap:butt;fill:none;" />
<polyline points="135.5,300.36374 135.86469,304.76202 136.22937,309.1427 136.59406,313.50497 136.95872,317.84805 137.32341,322.1711 137.6881,326.4734 138.05278,330.75412 138.41745,335.01248 138.78214,339.24774 139.14682,343.4591 139.5115,347.64587 139.87619,351.8073 140.24088,355.94257 140.60556,360.05106 140.97023,364.13196 141.33492,368.18463 141.6996,372.2083 142.06429,376.20233 142.42897,380.16602 142.79364,384.0987 143.15833,387.99966 143.52301,391.8683 143.8877,395.70392 144.25238,399.5059 144.61707,403.2736 144.98175,407.0064 145.34642,410.70367 145.7111,414.36487 146.07579,417.98932 146.44048,421.57648 146.80515,425.12576 147.16983,428.6366 147.53452,432.10846 147.8992,435.54077 148.26389,438.93298 148.62857,442.2846 148.99326,445.59512 149.35793,448.864 149.72261,452.09076 150.0873,455.2749 150.45198,458.416 150.81665,461.51352 151.18134,464.56702 151.54602,467.5761 151.9107,470.5403 152.27539,473.45923 152.64008,476.3324 153.00476,479.1595 153.36943,481.94006 153.73412,484.67377 154.0988,487.3602 154.46349,489.99902 154.82816,492.58994 155.19284,495.1325 155.55753,497.6265 155.92221,500.07153 156.2869,502.46735 156.65158,504.81366 157.01627,507.11014 157.38094,509.35654 157.74562,511.5526 158.1103,513.6981 158.47499,515.7928 158.83968,517.8364 159.20435,519.82874 159.56903,521.76965 159.93372,523.65894 160.2984,525.49634 160.66309,527.28174 161.02777,529.01495 161.39246,530.69586 161.75713,532.32434 162.12181,533.9002 162.4865,535.42334 162.85117,536.89374 163.21585,538.3112 163.58054,539.6758 163.94522,540.98724 164.3099,542.2456 164.67459,543.4508 165.03928,544.6028 165.40396,545.70154 165.76865,546.7471 166.13332,547.7394 166.498,548.6784 166.86267,549.5642 167.22736,550.39685 167.59204,551.1763 167.95673,551.9026 168.32141,552.5758 168.6861,553.19604 169.05078,553.76337 169.41547,554.27783 169.78015,554.73956 170.14482,555.1487 170.5095,555.50525 170.87419,555.8095 171.23886,556.06146 171.60355,556.26135 171.96823,556.4093 172.33292,556.50543 172.6976,556.55 173.06229,556.54315 173.42697,556.4851 173.79166,556.3761 174.15633,556.21625 174.52101,556.00586 174.8857,555.7451 175.25037,555.43427 175.61505,555.0736 175.97974,554.6634 176.34442,554.2039 176.7091,553.6954 177.07379,553.13806 177.43848,552.53235 177.80316,551.87854 178.16783,551.1769 178.53252,550.4277 178.8972,549.63135 179.26187,548.7882 179.62656,547.89856 179.99124,546.9628 180.35593,545.98126 180.72061,544.95435 181.0853,543.88245 181.44998,542.76587 181.81467,541.60504 182.17935,540.4004 182.54402,539.15234 182.9087,537.86127 183.27338,536.5276 183.63806,535.15173 184.00275,533.73413 184.36743,532.27527 184.73212,530.77563 185.0968,529.23553 185.46149,527.6555 185.82617,526.0361 186.19086,524.3776 186.55553,522.68066 186.92021,520.94574 187.2849,519.1732 187.64957,517.3638 188.01425,515.5177 188.37894,513.6357 188.74362,511.71814 189.1083,509.7656 189.47299,507.7786 189.83768,505.7577 190.20236,503.70334 190.56703,501.61615 190.93172,499.49664 191.2964,497.3454 191.66107,495.16287 192.02576,492.9497 192.39044,490.70645 192.75513,488.43362 193.11981,486.13184 193.4845,483.80164 193.84918,481.4436 194.21387,479.05832 194.57854,476.64636 194.94322,474.2083 195.3079,471.74475 195.67258,469.25626 196.03726,466.74347 196.40195,464.20694 196.76663,461.64728 197.13132,459.06512 197.496,456.461 197.86069,453.83557 198.22537,451.1894 198.59006,448.52313 198.95473,445.8374 199.31941,443.13275 199.68408,440.4098 200.04877,437.66922 200.41345,434.9116 200.77814,432.1375 201.14282,429.34766 201.5075,426.54254 201.8722,423.7229 202.23688,420.88928 202.60156,418.04236 202.96623,415.18268 203.33092,412.3109 203.6956,409.42767 204.06027,406.5336 204.42496,403.62927 204.78964,400.71533 205.15433,397.79236 205.51901,394.86105 205.8837,391.92197 206.24838,388.97574 206.61307,386.023 206.97774,383.06433 207.34242,380.10037 207.7071,377.1317 208.07178,374.159 208.43646,371.1828 208.80115,368.2038 209.16583,365.2225 209.53052,362.23956 209.8952,359.2556 210.25989,356.27118 210.62457,353.28696 210.98924,350.30347 211.35393,347.32132 211.71861,344.34113 212.08328,341.36346 212.44797,338.3889 212.81265,335.41803 213.17734,332.45148 213.54202,329.48975 213.90671,326.53345 214.2714,323.58313 214.63608,320.6394 215.00076,317.70282 215.36543,314.7739 215.73012,311.85324 216.09479,308.9414 216.45947,306.03888 216.82416,303.14627 217.18884,300.2641 217.55353,297.39288 217.91821,294.5332 218.2829,291.68552 218.64758,288.8504 219.01227,286.02838 219.37694,283.21994 219.74162,280.4256 220.10631,277.64584 220.47098,274.88123 220.83566,272.1322 221.20035,269.39926 221.56503,266.6829 221.92972,263.9836 222.2944,261.30185 222.65909,258.63806 223.02376,255.99277 223.38844,253.3664 223.75313,250.75943 224.11781,248.17224 224.4825,245.60538 224.84717,243.05917 225.21185,240.53412 225.57654,238.03064 225.94122,235.54913 226.30591,233.09 226.6706,230.65369 227.03526,228.24057 227.39995,225.85104 227.76463,223.4855 228.12932,221.14435 228.494,218.82791 228.85869,216.53659 229.22336,214.27072 229.58804,212.0307 229.95273,209.81686 230.31741,207.62955 230.6821,205.46906 231.04677,203.33578 231.41145,201.23004 231.77614,199.1521 232.14082,197.1023 232.50551,195.08093 232.8702,193.08832 233.23486,191.12473 233.59955,189.19046 233.96423,187.28577 234.32892,185.41092 234.6936,183.5662 235.05829,181.75183 235.42296,179.96808 235.78764,178.21521 236.15233,176.49341 236.51701,174.80292 236.8817,173.14398 237.24637,171.51678 237.61105,169.92157 237.97574,168.35846 238.34042,166.82773 238.70511,165.3295 239.0698,163.86398 239.43446,162.4313 239.79915,161.03168 240.16383,159.66525 240.52852,158.33215 240.8932,157.0325 241.25787,155.76648 241.62256,154.53418 241.98724,153.33572 242.35193,152.17123 242.71661,151.0408 243.0813,149.94452 243.44597,148.8825 243.81065,147.85486 244.17534,146.86157 244.54002,145.90271 244.90471,144.97852 245.2694,144.0888 245.63406,143.23376 245.99875,142.41339 246.36343,141.62769 246.72812,140.87683 247.0928,140.16064 247.45747,139.47919 247.82216,138.83252 248.18684,138.2207 248.55153,137.64355 248.91621,137.10114 249.2809,136.59344 249.64557,136.12048 250.01025,135.68213 250.37494,135.27832 250.73962,134.90918 251.10431,134.57446 251.469,134.27417 251.83366,134.0083 252.19835,133.77661 252.56303,133.57922 252.92772,133.4159 253.2924,133.2865 253.65707,133.19116 254.02176,133.12952 254.38644,133.10156 254.75113,133.10718 255.11581,133.14624 255.4805,133.21863 255.84517,133.3241 256.20984,133.46265 256.57452,133.63397 256.9392,133.83801 257.3039,134.07458 257.66858,134.34357 258.03326,134.64471 258.39795,134.97778 258.76263,135.34277 259.12732,135.73932 259.492,136.1673 259.8567,136.62646 260.22137,137.1167 260.58606,137.6377 260.95074,138.18921 261.31543,138.77112 261.6801,139.38306 262.04477,140.0249 262.40945,140.69641 262.77414,141.39728 263.13882,142.12732 263.5035,142.88617 263.86816,143.67365 264.23285,144.4895 264.59753,145.33337 264.96222,146.20508 265.3269,147.10431 265.6916,148.03079 266.05627,148.98419 266.42096,149.96423 266.78564,150.97064 267.15033,152.00311 267.515,153.06134 267.8797,154.14499 268.2444,155.25378 268.60907,156.38736 268.97375,157.54544 269.33844,158.72769 269.70312,159.93378 270.06778,161.16336 270.43246,162.4161 270.79715,163.69168 271.16183,164.98972 271.52652,166.30994 271.8912,167.65195 272.25586,169.01538 272.62054,170.3999 272.98523,171.80518 273.3499,173.2308 273.7146,174.67645 274.07928,176.14172 274.44397,177.62628 274.80865,179.12976 275.17334,180.65176 275.53802,182.19193 275.9027,183.74988 276.2674,185.32523 276.63208,186.91757 276.99677,188.52658 277.36145,190.15186 277.72614,191.79297 278.09082,193.44958 278.45547,195.12128 278.82016,196.80765 279.18484,198.50836 279.54953,200.22293 279.9142,201.95105 280.27887,203.69229 280.64355,205.44623 281.00824,207.2125 281.37292,208.99066 281.7376,210.78036 282.1023,212.58118 282.46698,214.3927 282.83167,216.21454 283.19635,218.0463 283.56104,219.88754 283.92572,221.73788 284.2904,223.59692 284.6551,225.46426 285.01978,227.33948 285.38446,229.22217 285.74915,231.11194 286.11383,233.00836 286.4785,234.91107 286.84317,236.81964 287.20786,238.73364 287.57254,240.65271 287.93723,242.57645 288.3019,244.5044 288.66656,246.43622 289.03125,248.37149 289.39594,250.30978 289.76062,252.25073 290.1253,254.19391 290.49,256.13898 290.85468,258.08545 291.21936,260.03302 291.58405,261.98123 291.94873,263.92975 292.31342,265.8781 292.6781,267.826 293.0428,269.77295 293.40747,271.71866 293.77216,273.6627 294.13684,275.60468 294.50153,277.54422 294.86618,279.481 295.23087,281.41455 295.59555,283.34454 295.96024,285.27063 296.32492,287.1924 296.68958,289.10953 297.05426,291.0216 297.41895,292.92828 297.78363,294.8292 298.14832,296.724 298.513,298.61234 298.8777,300.49384 299.24237,302.36816 299.60706,304.235 299.97174,306.0939 300.33643,307.94464 300.7011,309.78683 301.0658,311.62012 301.43048,313.4442 301.79517,315.25873 302.15985,317.0634 302.52454,318.85785 302.8892,320.64178 303.25388,322.4149 303.61856,324.17685 303.98325,325.92734 304.34793,327.66608 304.71262,329.39276 305.07727,331.10706 305.44196,332.8087 305.80664,334.49738 306.17133,336.1728 306.536,337.83472 306.9007,339.48282 307.26538,341.11682 307.63007,342.73648 307.99475,344.3415 308.35944,345.93164 308.72412,347.5066 309.0888,349.06616 309.4535,350.61005 309.81818,352.13806 310.18286,353.64984 310.54755,355.14526 310.91223,356.62405 311.2769,358.08594 311.64157,359.53076 312.00626,360.95825 312.37094,362.36816 312.73563,363.76035 313.1003,365.13458 313.46497,366.4906 313.82965,367.82825 314.19434,369.14734 314.55902,370.44763 314.9237,371.729 315.2884,372.9912 315.65308,374.23407 316.01776,375.45746 316.38245,376.6612 316.74713,377.8451 317.11182,379.00897 317.4765,380.1527 317.8412,381.27615 318.20587,382.37915 318.57056,383.46155 318.93524,384.5232 319.2999,385.564 319.66458,386.5838 320.02927,387.58246 320.39395,388.5599 320.75864,389.516 321.12332,390.45062 321.48798,391.36368 321.85266,392.25507 322.21735,393.1247 322.58203,393.97244 322.94672,394.79828 323.3114,395.60205 323.6761,396.38373 324.04077,397.14325 324.40546,397.88055 324.77014,398.59552 325.13483,399.28812 325.4995,399.9583 325.8642,400.60602 326.22888,401.23126 326.59357,401.83392 326.95825,402.414 327.32294,402.97144 327.6876,403.5063 328.05228,404.01843 328.41696,404.50793 328.78165,404.97473 329.14633,405.41882 329.51102,405.84027 329.87567,406.23895 330.24036,406.615 330.60504,406.96832 330.96973,407.299 331.3344,407.60703 331.6991,407.89246 332.06378,408.15527 332.42847,408.3955 332.79315,408.61328 333.15784,408.80853 333.52252,408.98138 333.8872,409.13184 334.2519,409.25998 334.61658,409.36584 334.98126,409.44952 335.34595,409.51105 335.7106,409.55048 336.0753,409.568 336.43997,409.56354 336.80466,409.5373 337.16934,409.48932 337.53403,409.41968 337.89868,409.3285 338.26337,409.21588 338.62805,409.0819 338.99274,408.9267 339.35742,408.7504 339.7221,408.55304 340.0868,408.33484 340.45148,408.09586 340.81616,407.83624 341.18085,407.5561 341.54553,407.2556 341.91022,406.93488 342.2749,406.59402 342.6396,406.23325 343.00427,405.85266 343.36896,405.4524 343.73364,405.03265 344.0983,404.5936 344.46298,404.13535 344.82767,403.65808 345.19235,403.162 345.55704,402.6472 345.92172,402.1139 346.28638,401.5623 346.65106,400.99252 347.01575,400.40482 347.38043,399.79932 347.74512,399.17627 348.1098,398.53577 348.4745,397.8781 348.83917,397.20343 349.20386,396.51196 349.56854,395.80386 349.93323,395.0794 350.2979,394.33875 350.6626,393.5821 351.02728,392.80966 351.39194,392.02167 351.75662,391.21838 352.1213,390.39996 352.486,389.56662 352.85068,388.71863 353.21536,387.8562 353.58005,386.9795 353.94473,386.08887 354.30942,385.18445 354.6741,384.26648 355.0388,383.33527 355.40344,382.39093 355.76813,381.43384 356.1328,380.46414 356.4975,379.48212 356.86218,378.488 357.22687,377.48206 357.59155,376.46448 357.95624,375.43555 358.32092,374.39554 358.6856,373.34467 359.0503,372.28317 359.41495,371.21136 359.77963,370.1294 360.14432,369.03766 360.509,367.93628 360.8737,366.82562 361.23837,365.70587 361.60306,364.57727 361.96774,363.44016 362.33243,362.29474 362.6971,361.1413 363.0618,359.98007 363.42645,358.81134 363.79114,357.63535 364.15582,356.4524 364.5205,355.2627 364.8852,354.06653 365.24988,352.8642 365.61456,351.6559 365.97925,350.44196 366.34393,349.22263 366.70862,347.99817 367.0733,346.7688 367.438,345.53482 367.80264,344.2965 368.16733,343.05414 368.532,341.80792 368.8967,340.55814 369.26138,339.30508 369.62607,338.049 369.99075,336.79016 370.35544,335.5288 370.72012,334.26523 371.0848,332.99966 371.4495,331.7324 371.81415,330.46362 372.17883,329.19373 372.54352,327.92282 372.9082,326.65128 373.2729,325.37927 373.63757,324.10712 374.00226,322.83505 374.36694,321.56332 374.73163,320.29218 375.0963,319.02188 375.461,317.7527 375.82565,316.48483 376.19034,315.21857 376.55502,313.95416 376.9197,312.69183 377.2844,311.43182 377.64908,310.17438 378.01376,308.91977 378.37845,307.6682 378.74313,306.41995 379.10782,305.17523 379.4725,303.93427 379.8372,302.69733 380.20184,301.4646 380.56653,300.23633 380.9312,299.01276 381.2959,297.79413 381.66058,296.58063 382.02527,295.37247 382.38995,294.16992 382.75464,292.9732 383.11932,291.78247 383.484,290.59802 383.8487,289.41998 384.21335,288.24866 384.57803,287.08417 384.94272,285.92676 385.3074,284.77667 385.6721,283.63403 386.03677,282.4991 386.40146,281.37204 386.76614,280.25308 387.13083,279.1424 387.4955,278.04016 387.8602,276.9466 388.22485,275.86185 388.58954,274.78613 388.95422,273.71964 389.3189,272.6625 389.6836,271.61493 390.04828,270.5771 390.41296,269.54913 390.77765,268.53128 391.14233,267.52362 391.50702,266.5264 391.8717,265.5397 392.23636,264.56375 392.60104,263.59863 392.96573,262.64456 393.3304,261.70166 393.6951,260.77005 394.05978,259.8499 394.42447,258.94138 394.78915,258.0446 395.15384,257.15964 395.51852,256.2867 395.8832,255.42593 396.2479,254.5774 396.61255,253.74124 396.97723,252.9176 397.34192,252.10657 397.7066,251.30826 398.0713,250.52283 398.43597,249.7503 398.80066,248.99088 399.16534,248.2446 399.53003,247.51157 399.8947,246.7919 400.2594,246.0857 400.62405,245.393 400.98874,244.71396 401.35342,244.04861 401.7181,243.39706 402.0828,242.75937 402.44748,242.13565 402.81216,241.52594 403.17685,240.9303 403.54153,240.34882 403.90622,239.78152 404.2709,239.22852 404.63556,238.68985 405.00024,238.16556 405.36493,237.6557 405.7296,237.16034 406.0943,236.67947 406.45898,236.21317 406.82367,235.76147 407.18835,235.32443 407.55304,234.90204 407.91772,234.49435 408.2824,234.10138 408.64706,233.72318 409.01175,233.35971 409.37643,233.01105 409.74112,232.67719 410.1058,232.3581 410.4705,232.05383 410.83517,231.7644 411.19986,231.48978 411.56454,231.22998 411.92923,230.98502 412.2939,230.75482 412.6586,230.53943 413.02325,230.33884 413.38794,230.15302 413.75262,229.98193 414.1173,229.82556 414.482,229.6839 414.84668,229.55692 415.21136,229.44458 415.57605,229.34686 415.94073,229.2637 416.30542,229.1951 416.6701,229.14096 417.03476,229.10129 417.39944,229.07602 417.76413,229.06512 418.1288,229.06851 418.4935,229.08612 418.8582,229.11795 419.22287,229.16391 419.58755,229.2239 419.95224,229.29794 420.31693,229.38586 420.6816,229.48767 421.04626,229.60327 421.41095,229.7326 421.77563,229.87552 422.14032,230.03204 422.505,230.202 422.8697,230.38535 423.23438,230.582 423.59906,230.79187 423.96375,231.01486 424.32843,231.25085 424.6931,231.49979 425.05777,231.76154 425.42245,232.03604 425.78714,232.32312 426.15182,232.62274 426.5165,232.93478 426.8812,233.25912 427.24588,233.59564 427.61057,233.94424 427.97525,234.30478 428.33994,234.67719 428.70462,235.06131 429.0693,235.45703 429.43396,235.86423 429.79865,236.28278 430.16333,236.71252 430.528,237.15341 430.8927,237.60526 431.2574,238.06793 431.62207,238.54129 431.98676,239.02524 432.35144,239.51959 432.71613,240.02426 433.0808,240.53906 433.44547,241.06387 433.81015,241.59857 434.17484,242.14297 434.53952,242.69696 434.9042,243.26038 435.2689,243.83304 435.63358,244.41486 435.99826,245.00568 436.36295,245.60529 436.72763,246.2136 437.09232,246.83041 437.45697,247.45557 437.82166,248.08896 438.18634,248.73038 438.55103,249.3797 438.9157,250.03677 439.2804,250.70139 439.64508,251.37341 440.00977,252.05267 440.37445,252.73901 440.73914,253.43231 441.10382,254.13232 441.46848,254.83893 441.83316,255.55194 442.19785,256.27124 442.56253,256.99658 442.92722,257.72787 443.2919,258.4649 443.6566,259.20752 444.02127,259.95554 444.38596,260.70877 444.75064,261.4671 445.11533,262.23035 445.48,262.9983 445.84467,263.77078 446.20935,264.54767 446.57404,265.32877 446.93872,266.11392 447.3034,266.90292 447.6681,267.69562 448.03278,268.49182 448.39746,269.2914 448.76215,270.09415 449.12683,270.8999 449.49152,271.70847 449.85617,272.5197 450.22086,273.33344 450.58554,274.14948 450.95023,274.96765 451.3149,275.78778 451.6796,276.60974 452.04428,277.43332 452.40897,278.25836 452.77365,279.08466 453.13834,279.9121 453.50302,280.74048 453.86768,281.56964 454.23236,282.3994 454.59705,283.2296 454.96173,284.0601 455.32642,284.89066 455.6911,285.7212 456.0558,286.55148 456.42047,287.38138 456.78516,288.21072 457.14984,289.03934 457.51453,289.86707 457.87918,290.69376 458.24387,291.51926 458.60855,292.34335 458.97324,293.16595 459.33792,293.98685 459.7026,294.8059 460.0673,295.62296 460.43198,296.43787 460.79666,297.25046 461.16135,298.06058 461.52603,298.86807 461.89072,299.67282 462.25537,300.47464 462.62006,301.27338 462.98474,302.0689 463.34943,302.86108 463.7141,303.64975 464.0788,304.43475 464.44348,305.21594 464.80817,305.99323 465.17285,306.76642 465.53754,307.53537 465.90222,308.3 466.26688,309.0601 466.63156,309.81558 466.99625,310.5663 467.36093,311.31216 467.72562,312.05298 468.0903,312.78864 468.455,313.519 468.81967,314.244 469.18436,314.96344 469.54904,315.67722 469.91373,316.38522 470.27838,317.08734 470.64307,317.78345 471.00775,318.47342 471.37244,319.15717 471.73712,319.83453 472.1018,320.50546 472.4665,321.16977 472.83118,321.82742 473.19586,322.47827 473.56055,323.12222 473.92523,323.7592 474.2899,324.38904 474.65457,325.01172 475.01926,325.62708 475.38394,326.23505 475.74863,326.83554 476.1133,327.42844 476.478,328.01367 476.84268,328.5912 477.20737,329.16083 477.57205,329.72256 477.93674,330.27628 478.30142,330.8219 478.66608,331.35938 479.03076,331.8886 479.39545,332.40955 479.76013,332.92206 480.12482,333.42612 480.4895,333.92163 480.8542,334.4086 481.21887,334.88687 481.58356,335.35645 481.94824,335.8172 482.31293,336.26917 482.67758,336.7122 483.04227,337.14627 483.40695,337.57135 483.77164,337.98737 484.13632,338.3943 484.501,338.79205 484.8657,339.1806 485.23038,339.55994 485.59506,339.93 485.95975,340.2907 486.32443,340.6421 486.6891,340.98407 487.05377,341.31662 487.41846,341.6397 487.78314,341.95334 488.14783,342.25745 488.5125,342.55203 488.8772,342.83704 489.24188,343.1125 489.60657,343.37833 489.97125,343.63455 490.33594,343.88116 490.70062,344.1181 491.06528,344.34543 491.42996,344.56308 491.79465,344.77106 492.15933,344.96936 492.52402,345.15802 492.8887,345.33698 493.2534,345.50626 493.61807,345.6659 493.98276,345.81583 494.34744,345.95612 494.71213,346.08673 495.07678,346.20773 495.44147,346.3191 495.80615,346.42084 496.17084,346.513 496.53552,346.59558 496.9002,346.66858 497.2649,346.73206 497.62958,346.78604 497.99426,346.8305 498.35895,346.8655 498.72363,346.89108 499.0883,346.90726 499.45297,346.91406 499.81766,346.91153 500.18234,346.89972 500.54703,346.8786 500.9117,346.84827 501.2764,346.80878 501.64108,346.76013 502.00577,346.7024 502.37045,346.63562 502.73514,346.55984 503.0998,346.4751 503.46448,346.38147 503.82916,346.279 504.19385,346.16772 504.55853,346.04773 504.92322,345.919 505.2879,345.78168 505.6526,345.6358 506.01727,345.48145 506.38196,345.3186 506.74664,345.14746 507.11133,344.96796 507.47598,344.7802 507.84067,344.5843 508.20535,344.3803 508.57004,344.16827 508.93472,343.9483 509.2994,343.72043 509.6641,343.48474 510.02878,343.24136 510.39346,342.9903 510.75815,342.7317 511.12283,342.46558 511.4875,342.19205 511.85217,341.9112 512.21686,341.6231 512.58154,341.32788 512.9462,341.02554 513.3109,340.71625 513.6756,340.40002 514.0403,340.07703 514.40497,339.7473 514.76965,339.41098 515.13434,339.0681 515.499,338.7188 515.86365,338.36316 516.2284,338.00122 516.593,337.63318 516.95776,337.25906 517.3224,336.879 517.68713,336.49307 518.05176,336.10138 518.4165,335.70404 518.7811,335.30115 519.1459,334.89276 519.5105,334.47906 519.8752,334.06012 520.23987,333.636 520.60455,333.20685 520.96924,332.77274 521.3339,332.3338 521.6986,331.89017 522.0633,331.4419 522.428,330.9891 522.79266,330.53192 523.15735,330.07043 523.52203,329.60477 523.8867,329.135 524.25134,328.66132 524.6161,328.18372 524.9807,327.7024 525.34546,327.2174 525.7101,326.72894 526.0748,326.23703 526.43945,325.7418 526.8042,325.24338 527.1688,324.7419 527.53357,324.23743 527.8982,323.7301 528.2629,323.22006 528.62756,322.70734 528.99225,322.19214 529.35693,321.6745 529.7216,321.15457 530.0863,320.63248 530.451,320.1083 530.8157,319.58218 531.18036,319.0542 531.54504,318.52448 531.90967,317.99316 532.2744,317.46033 532.63904,316.9261 533.0038,316.3906 533.3684,315.8539 533.73315,315.31616 534.0978,314.7775 534.4625,314.23795 534.82715,313.69772 535.1919,313.15686 535.5565,312.61548 535.9212,312.07373 536.2859,311.53168 536.6506,310.98947 537.01526,310.4472 537.37994,309.90497 537.7446,309.36288 538.1093,308.82104 538.474,308.2796 538.8387,307.73862 539.20337,307.1982 539.56805,306.6585 539.93274,306.11957 540.29736,305.58154 540.6621,305.04453 541.02673,304.5086 541.3915,303.9739 541.7561,303.4405 542.12085,302.9085 542.4855,302.37802 542.8502,301.84915 543.21484,301.32202 543.5796,300.79666 543.9442,300.27322 544.3089,299.7518 544.6736,299.23248 545.03827,298.71536 545.40295,298.20053 545.76764,297.6881 546.1323,297.17816 546.497,296.67078 546.8617,296.16605 547.2264,295.6641 547.59106,295.165 547.95575,294.66882 548.32043,294.1757 548.68506,293.68564 549.0498,293.1988 549.4144,292.71524 549.7792,292.23505 550.1438,291.75833 550.50854,291.28513 550.87317,290.81552 551.2379,290.34964 551.60254,289.8875 551.9673,289.42923 552.3319,288.97488 552.6966,288.52454 553.0613,288.07828 553.42596,287.63617 553.79065,287.1983 554.15533,286.7647 554.52,286.3355 554.8847,285.9107 555.2494,285.49045 555.6141,285.07474 555.97876,284.66367 556.34344,284.2573 556.7081,283.8557 557.07275,283.45892 557.4375,283.06705 557.8021,282.6801 558.1669,282.2982 558.5315,281.92133 558.89624,281.5496 559.26086,281.183 559.6256,280.8217 559.99023,280.4656 560.355,280.1149 560.7196,279.76956 561.0843,279.42966 561.449,279.0952 561.81366,278.7663 562.17834,278.44296 562.543,278.12524 562.9077,277.81317 563.2724,277.5068 563.6371,277.20615 564.0018,276.9113 564.36646,276.62225 564.7311,276.33902 565.0958,276.0617 565.46045,275.79028 565.8252,275.52484 566.1898,275.26535 566.55457,275.01187 566.9192,274.7644 567.28394,274.523 567.64856,274.28772 568.0133,274.05853 568.3779,273.83545 568.7426,273.61856 569.1073,273.4078 569.472,273.20328 569.8367,273.00494 570.20135,272.81284 570.56604,272.62695 570.9307,272.44736 571.2954,272.274 571.6601,272.10693 572.0248,271.94614 572.38947,271.79166 572.75415,271.64346 573.1188,271.50156 573.4835,271.366 573.84814,271.23676 574.2129,271.1138 574.5775,270.99716 574.94226,270.88687 575.3069,270.78287 575.67163,270.6852 576.03625,270.5938 576.401,270.50876 576.7656,270.42996 577.1303,270.35748 577.495,270.29126 577.8597,270.23132 578.22437,270.1776 578.58905,270.13016 578.95374,270.08893 579.3184,270.05392 579.6831,270.02512 580.0478,270.00247 580.4125,269.98596 580.77716,269.97562 581.14185,269.9714 581.5065,269.97327 581.8712,269.9812 582.23584,269.99518 582.6006,270.01517 582.9652,270.04117 583.32996,270.07315 583.6946,270.11105 584.0593,270.15485 584.42395,270.20453 584.7887,270.26004 585.1533,270.32138 585.518,270.3885 585.8827,270.46133 586.2474,270.5399 586.61206,270.6241 586.97675,270.71396 587.34143,270.8094 587.7061,270.91037 588.0708,271.01688 588.4355,271.1288 588.8002,271.2462 589.16486,271.36896 589.52954,271.49704 589.89417,271.6304 590.2589,271.769 590.62354,271.91284 590.9883,272.06177 591.3529,272.21582 591.71765,272.3749 592.0823,272.539 592.447,272.708 592.81165,272.88193 593.1764,273.06067 593.541,273.2442 593.9057,273.43246 594.2704,273.6254 594.6351,273.82294 594.99976,274.02502 595.36444,274.23163 595.7291,274.44266 596.0938,274.65808 596.4585,274.8778 596.8232,275.10184 597.18787,275.33005 597.5525,275.56238 597.91724,275.7988 598.28186,276.03925 598.6466,276.28363 599.0112,276.53192 599.376,276.784 599.7406,277.03986 600.10535,277.2994 600.47,277.5626 600.8347,277.8293 601.19934,278.09955 601.5641,278.37323 601.9287,278.65024 602.2934,278.93054 602.6581,279.21405 603.02277,279.50073 603.38745,279.7905 603.75214,280.08328 604.1168,280.379 604.4815,280.67758 604.8462,280.97897 605.2109,281.2831 605.57556,281.5899 605.9402,281.89926 606.30493,282.21115 606.66956,282.5255 607.0343,282.84222 607.399,283.16122 607.7636,283.48245 608.1283,283.80585 608.493,284.13135 608.85767,284.45883 609.22235,284.78824 609.58704,285.11954 609.9517,285.4526 610.3164,285.7874 610.6811,286.12384 611.0458,286.46185 611.41046,286.80136 611.77515,287.14227 612.13983,287.48456 612.5045,287.82812 612.8692,288.17285 613.2339,288.51874 613.5986,288.86566 613.96326,289.2136 614.32794,289.5624 614.6926,289.91208 615.0573,290.26248 615.422,290.6136 615.7867,290.96533 616.1513,291.3176 616.516,291.67032 616.8807,292.02347 617.24536,292.37692 617.61005,292.73065 617.97473,293.08453 618.3394,293.43854 618.7041,293.7926 619.0688,294.1466 619.4335,294.50055 619.79816,294.85428 620.16284,295.2078 620.5275,295.56097 620.8922,295.9138 621.2569,296.26614 621.6216,296.61798 621.98627,296.96924 622.35095,297.31982 622.71564,297.6697 623.0803,298.01877 623.445,298.367 623.8097,298.7143 624.1744,299.0606 624.539,299.40585 624.9037,299.75 625.2684,300.09293 625.63306,300.43463 625.99774,300.77502 626.3624,301.11404 626.7271,301.4516 627.0918,301.7877 627.4565,302.1222 627.82117,302.45508 628.18585,302.7863 628.55054,303.11575 628.9152,303.44342 629.2799,303.7692 629.6446,304.09308 630.0093,304.41498 630.37396,304.73486 630.73865,305.05264 631.10333,305.36826 631.468,305.6817 631.8327,305.9929 632.1974,306.30176 632.562,306.60825 632.9267,306.91235 633.2914,307.214 633.65607,307.5131 634.02075,307.80963 634.38544,308.10358 634.7501,308.39484 635.1148,308.6834 635.4795,308.96918 635.8442,309.25217 636.20886,309.53232 636.57355,309.80954 636.93823,310.08383 637.3029,310.35513 637.6676,310.6234 638.0323,310.8886 638.397,311.15073 638.76166,311.40967 639.12634,311.6654 639.491,311.9179 639.8557,312.16714 640.2204,312.4131 640.5851,312.65567 640.9497,312.8949 641.3144,313.13068 641.6791,313.36304 642.04376,313.5919 642.40845,313.81726 642.77313,314.03906 643.1378,314.25726 643.5025,314.4719 643.8672,314.68286 644.2319,314.89017 644.59656,315.0938 644.96124,315.2937 645.3259,315.48984 645.6906,315.68222 646.0553,315.87082 646.42,316.0556 646.78467,316.2365 647.14935,316.4136 647.51404,316.58676 647.8787,316.75607 648.2434,316.92142 648.6081,317.08282 648.9727,317.2403 649.3374,317.3938 649.7021,317.5433 650.0668,317.68878 650.43146,317.83026 650.79614,317.9677 651.1608,318.10114 651.5255,318.23047 651.8902,318.35574 652.2549,318.47696 652.61957,318.5941 652.98425,318.70712 653.34894,318.81607 653.7136,318.9209 654.0783,319.02164 654.443,319.11823 654.8077,319.21072 655.17236,319.2991 655.53705,319.38336 655.90173,319.46347 656.2664,319.53946 656.6311,319.61136 656.9958,319.6791 657.3604,319.74274 657.7251,319.80225 658.0898,319.85764 658.45447,319.90894 658.81915,319.95612 659.18384,319.9992 659.5485,320.0382 659.9132,320.07312 660.2779,320.10397 660.6426,320.13074 661.00726,320.15347 661.37195,320.17215 661.73663,320.1868 662.1013,320.19742 662.466,320.20404 662.8307,320.20667 663.1954,320.2053 663.56006,320.19998 663.92474,320.1907 664.2894,320.17752 664.6541,320.1604 665.0188,320.1394 665.3834,320.11453 665.7481,320.08582 666.1128,320.05322 666.4775,320.01685 666.84216,319.97668 667.20685,319.93274 667.57153,319.88504 667.9362,319.83362 668.3009,319.7785 668.6656,319.71973 669.0303,319.6573 669.39496,319.59122 669.75964,319.52158 670.1243,319.44836 670.489,319.3716 670.8537,319.29135 671.2184,319.20758 671.58307,319.1204 671.94775,319.0298 672.31244,318.93576 672.6771,318.8384 673.0418,318.73773 673.4065,318.63373 673.7711,318.5265 674.1358,318.41605 674.5005,318.30237 674.8652,318.18558 675.22986,318.06564 675.59454,317.94263 675.9592,317.81656 676.3239,317.68747 676.6886,317.55542 677.0533,317.42044 677.41797,317.28256 677.78265,317.1418 678.14734,316.99826 678.512,316.8519 678.8767,316.70282 679.2414,316.55103 679.6061,316.39658 679.97076,316.2395 680.33545,316.07986 680.70013,315.91766 681.0648,315.753 681.4295,315.58588 681.7941,315.41632 682.1588,315.24442 682.5235,315.0702 682.8882,314.89368 683.25287,314.71494 683.61755,314.534 683.98224,314.35092 684.3469,314.16574 684.7116,313.9785 685.0763,313.78925 685.441,313.59802 685.80566,313.40488 686.17035,313.20987 686.53503,313.01303 686.8997,312.8144 687.2644,312.61404 687.6291,312.41202 687.9938,312.2083 688.35846,312.00302 688.72314,311.7962 689.0878,311.58786 689.4525,311.37808 689.8172,311.1669 690.1818,310.95435 690.5465,310.74048 690.9112,310.52536 691.2759,310.30902 691.64056,310.09152 692.00525,309.8729 692.36993,309.6532 692.7346,309.4325 693.0993,309.21082 693.464,308.9882 693.8287,308.76468 694.19336,308.54034 694.55804,308.31525 694.9227,308.0894 695.2874,307.86285 695.6521,307.63568 696.0168,307.40793 696.3815,307.17963 696.74615,306.95084 697.11084,306.72156 697.4755,306.4919 697.8402,306.26193 698.20483,306.03162 698.5695,305.80106 698.9342,305.57025 699.2989,305.33932 699.6636,305.10825 700.02826,304.87714 700.39294,304.64597 700.7576,304.41483 701.1223,304.18378 701.487,303.95282 701.8517,303.72202 702.2164,303.49146 702.58105,303.2611 702.94574,303.03107 703.3104,302.80136 703.6751,302.57205 704.0398,302.34317 704.4045,302.11475 704.76917,301.88687 705.13385,301.65955 705.49854,301.4328 705.8632,301.20673 706.2279,300.98132 706.5925,300.75668 706.9572,300.5328 707.3219,300.30972 707.6866,300.08752 708.0513,299.8662 708.41595,299.64587 708.78064,299.42648 709.1453,299.2081 709.51,298.9908 709.8747,298.7746 710.2394,298.55954 710.60406,298.34567 710.96875,298.133 711.33344,297.92157 711.6981,297.71146 712.0628,297.50266 712.4275,297.29523 712.7922,297.0892 713.15686,296.8846 713.52155,296.68152 713.8862,296.47992 714.2509,296.27985 714.61554,296.08136 714.9802,295.8845 715.3449,295.68924 715.7096,295.4957 716.0743,295.30386 716.43896,295.11374 716.80365,294.9254 717.16833,294.7389 717.533,294.5542 717.8977,294.37137 718.2624,294.19043 718.6271,294.0114 718.99176,293.83435 719.35645,293.65924 719.7211,293.48618 720.0858,293.31512 720.4505,293.14615 720.8152,292.97925 721.1799,292.81445 721.54456,292.6518 721.90924,292.4913 722.2739,292.33298 722.6386,292.17688 723.00323,292.023 723.3679,291.8714 723.7326,291.72205 724.0973,291.575 724.462,291.43027 724.82666,291.28787 725.19135,291.14786 725.556,291.0102 725.9207,290.8749 726.2854,290.74207 726.6501,290.61163 727.0148,290.48364 727.37946,290.35812 727.74414,290.23508 728.1088,290.11453 728.4735,289.9965 728.8382,289.88098 729.2029,289.768 729.56757,289.65756 729.93225,289.54968 730.29694,289.44437 730.6616,289.34167 731.02625,289.24155 731.3909,289.144 731.7556,289.04913 732.1203,288.95685 732.485,288.8672 732.8497,288.78018 733.21436,288.69583 733.57904,288.61414 733.9437,288.53506 734.3084,288.4587 734.6731,288.38498 735.0378,288.31396 735.40247,288.2456 735.76715,288.17993 736.13184,288.11694 736.4965,288.05667 736.8612,287.99905 737.2259,287.94415 737.5906,287.89194 737.95526,287.8424 738.31995,287.79556 738.68463,287.75143 739.0493,287.70996 739.41394,287.6712 739.7786,287.63513 740.1433,287.60175 740.508,287.571 740.8727,287.54297 741.23737,287.5176 741.60205,287.4949 741.96674,287.47485 742.3314,287.45746 742.6961,287.44272 743.0608,287.43063 743.4255,287.42114 743.79016,287.4143 744.15485,287.4101 744.51953,287.40845 744.8842,287.40942 745.2489,287.413 745.6136,287.41913 745.9783,287.42783 746.34296,287.4391 746.70764,287.4529 747.0723,287.46924 747.43695,287.48807 747.80164,287.50943 748.1663,287.53326 748.531,287.55957 748.8957,287.58835 749.2604,287.61957 749.62506,287.65323 749.98975,287.6893 750.35443,287.72775 750.7191,287.76862 751.0838,287.81183 751.4485,287.85736 751.8132,287.90524 752.17786,287.95544 752.54254,288.00793 752.9072,288.06268 753.2719,288.1197 753.6366,288.17892 754.0013,288.2404 754.36597,288.30402 754.73065,288.36984 755.09534,288.4378 755.46,288.5079 755.82465,288.58008 756.18933,288.65436 756.554,288.7307 756.9187,288.80908 757.2834,288.88947 757.6481,288.97183 758.01276,289.05618 758.37744,289.14246 758.7421,289.23065 759.1068,289.32074 759.4715,289.4127 759.8362,289.5065 760.20087,289.6021 760.56555,289.6995 760.93024,289.79868 761.2949,289.89957 761.6596,290.00217 762.0243,290.10648 762.389,290.2124 762.75366,290.31998 763.11835,290.42917 763.48303,290.5399 763.84766,290.6522 764.21234,290.766 764.577,290.8813 764.9417,290.99805 765.3064,291.1162 765.6711,291.2358 766.03577,291.35675 766.40045,291.47903 766.76514,291.60266 767.1298,291.72754 767.4945,291.85367 767.8592,291.98105 768.2239,292.1096 768.58856,292.23932 768.95325,292.37018 769.31793,292.50214 769.6826,292.63513 770.0473,292.7692 770.412,292.90427 770.7767,293.04034 771.14136,293.17734 771.50604,293.31525 771.8707,293.45404 772.23535,293.5937 772.60004,293.7342 772.9647,293.87546 773.3294,294.0175 773.6941,294.16025 774.0588,294.3037 774.42346,294.44785 774.78815,294.5926 775.15283,294.73795 775.5175,294.8839 775.8822,295.03036 776.2469,295.17737 776.6116,295.32483 776.97626,295.47275 777.34094,295.6211 777.7056,295.7698 778.0703,295.91888 778.435,296.06827 778.7997,296.21796 779.16437,296.3679 779.52905,296.51807 779.89374,296.66846 780.25836,296.819 780.62305,296.96967 780.98773,297.12045 781.3524,297.2713 781.7171,297.4222 782.0818,297.57312 782.4465,297.72403 782.81116,297.8749 783.17584,298.0257 783.5405,298.17636 783.9052,298.3269 784.2699,298.4773 784.6346,298.62747 784.99927,298.77744 785.36395,298.92712 785.72864,299.07657 786.0933,299.22568 786.458,299.37445 786.8227,299.52286 787.1874,299.67087 787.55206,299.81845 787.91675,299.9656 788.28143,300.11227 788.64606,300.25842 789.01074,300.40402 789.3754,300.54907 789.7401,300.69354 790.1048,300.8374 790.4695,300.98062 790.83417,301.12317 791.19885,301.265 791.56354,301.40613 791.9282,301.54654 792.2929,301.68616 792.6576,301.82495 793.0223,301.96298 793.38696,302.10013 793.75165,302.23642 794.11633,302.3718 794.481,302.5063 794.8457,302.63983 795.2104,302.7724 795.5751,302.904 795.93976,303.03458 796.30444,303.16412 796.66907,303.29263 797.03375,303.42007 797.39844,303.5464 797.7631,303.6716 798.1278,303.7957 798.4925,303.9186 798.8572,304.04034 799.22186,304.1609 799.58655,304.2802 799.95123,304.39832 800.3159,304.51514 800.6806,304.6307 801.0453,304.74496 801.41,304.85794 801.77466,304.96957 802.13934,305.07983 802.504,305.18875 802.8687,305.2963 803.2334,305.40247 803.5981,305.5072 803.96277,305.6105 804.32745,305.71237 804.69214,305.81277 805.05676,305.9117 805.42145,306.00916 805.78613,306.10513 806.1508,306.19955 806.5155,306.29248 806.8802,306.38385 807.2449,306.4737 807.60956,306.56195 807.97424,306.64862 808.3389,306.73373 808.7036,306.81723 809.0683,306.89914 809.433,306.9794 809.79767,307.05804 810.16235,307.13507 810.52704,307.21042 810.8917,307.28415 811.2564,307.35617 811.6211,307.42654 811.9858,307.49524 812.35046,307.56226 812.71515,307.62756 813.0798,307.69116 813.44446,307.75308 813.80914,307.81326 814.1738,307.87173 814.5385,307.92847 814.9032,307.9835 815.2679,308.03677 815.63257,308.08832 815.99725,308.13812 816.36194,308.1862 816.7266,308.2325 817.0913,308.27707 817.456,308.3199 817.8207,308.36096 818.18536,308.40027 818.55005,308.4378 818.91473,308.4736 819.2794,308.50763 819.6441,308.5399 820.0088,308.5704 820.3735,308.59918 820.73816,308.6262 821.10284,308.65143 821.46747,308.67493 821.83215,308.69666 822.19684,308.71664 822.5615,308.7349 822.9262,308.7514 823.2909,308.76617 823.6556,308.7792 824.02026,308.7905 824.38495,308.80005 824.74963,308.8079 825.1143,308.81403 825.479,308.81842 825.8437,308.82114 826.2084,308.82214 826.57306,308.82144 826.93774,308.81906 827.3024,308.815 827.6671,308.80923 828.0318,308.80185 828.3965,308.7928 828.76117,308.78204 829.12585,308.76968 829.49054,308.7557 829.85516,308.74008 830.21985,308.72284 830.58453,308.704 830.9492,308.68356 831.3139,308.66153 831.6786,308.63794 832.0433,308.61276 832.40796,308.58603 832.77264,308.55777 833.1373,308.52798 833.502,308.49667 833.8667,308.46384 834.2314,308.42953 834.59607,308.39374 834.96075,308.35645 835.32544,308.31772 835.6901,308.27756 836.0548,308.23596 836.4195,308.19293 836.7842,308.14853 837.14886,308.1027 837.51355,308.0555 837.8782,308.007 838.24286,307.9571 838.60754,307.90588 838.9722,307.85336 839.3369,307.79953 839.7016,307.74442 840.0663,307.68805 840.43097,307.63043 840.79565,307.57156 841.16034,307.51147 841.525,307.4502 841.8897,307.38773 842.2544,307.3241 842.6191,307.2593 842.98376,307.19342 843.34845,307.12637 843.71313,307.05826 844.0778,306.98904 844.4425,306.91876 844.8072,306.84744 845.1719,306.77512 845.53656,306.70175 845.90125,306.62744 846.26587,306.55212 846.63055,306.47586 846.99524,306.39868 847.3599,306.32056 847.7246,306.24158 848.0893,306.16168 848.454,306.08096 848.81866,305.9994 849.18335,305.91702 849.54803,305.83383 849.9127,305.74988 850.2774,305.66516 850.6421,305.5797 851.0068,305.49353 851.37146,305.40665 851.73615,305.3191 852.1008,305.2309 852.4655,305.14203 852.8302,305.05258 853.1949,304.96252 853.5596,304.87186 853.92426,304.78067 854.2889,304.68893 854.65356,304.59668 855.01825,304.50394 855.38293,304.4107 855.7476,304.31702 856.1123,304.22293 856.477,304.1284 856.8417,304.03348 857.20636,303.93817 857.57104,303.84253 857.9357,303.74655 858.3004,303.65024 858.6651,303.55368 859.0298,303.45682 859.3945,303.3597 859.75916,303.2624 860.12384,303.16483 860.4885,303.0671 860.8532,302.9692 861.2179,302.87115 861.5826,302.77295 861.94727,302.67468 862.31195,302.5763 862.6766,302.47784 863.04126,302.37933 863.40594,302.28082 863.7706,302.18228 864.1353,302.08377 864.5,301.98526" style="stroke:rgb(255.0,164.985,0.0);stroke-width:3.0;opacity:1.0;stroke-linecap:butt;fill:none;" />
<text font-size="20.0" font-family="Roboto" x="405.4" y="36.0" style="stroke:rgb(0.0,0.0,0.0);stroke-width:0.3;fill:rgb(0.0,0.0,0.0);opacity:1.0;" transform="rotate(-0.0,405.4,36.0)">Damped Mass on Spring</text>
<text font-size="15.0" font-family="Roboto" x="467.625" y="646.0" style="stroke:rgb(0.0,0.0,0.0);stroke-width:0.3;fill:rgb(0.0,0.0,0.0);opacity:1.0;" transform="rotate(-0.0,467.625,646.0)">Time (s)</text>
<text font-size="15.0" font-family="Roboto" x="984.0" y="367.225" style="stroke:rgb(0.0,0.0,0.0);stroke-width:0.3;fill:rgb(0.0,0.0,0.0);opacity:1.0;" transform="rotate(-90.0,984.0,367.225)">Velocity (m/s)</text>
<text font-size="15.0" font-family="Roboto" x="31.0" y="362.2" style="stroke:rgb(0.0,0.0,0.0);stroke-width:0.3;fill:rgb(0.0,0.0,0.0);opacity:1.0;" transform="rotate(-90.0,31.0,362.2)">Position (m)</text>
<rect x="115.0" y="74.0" width="108.100006" height="50.0" style="fill:rgb(255.0,255.0,255.0);stroke-width:2.0;stroke:rgb(0.0,0.0,0.0);opacity:0.7" />
<rect x="125.0" y="84.0" width="10.0" height="10.0" style="fill:rgb(134.89499,206.04001,235.11);stroke-width:0;stroke:rgb(0,0,0);opacity:1.0" />
<text font-size="10.0" font-family="Roboto" x="145.0" y="94.0" style="stroke:rgb(0.0,0.0,0.0);stroke-width:0.3;fill:rgb(0.0,0.0,0.0);opacity:1.0;" transform="rotate(-0.0,145.0,94.0)">Mass Position</text>
<rect x="125.0" y="104.0" width="10.0" height="10.0" style="fill:rgb(255.0,164.985,0.0);stroke-width:0;stroke:rgb(0,0,0);opacity:1.0" />
<text font-size="10.0" font-family="Roboto" x="145.0" y="114.0" style="stroke:rgb(0.0,0.0,0.0);stroke-width:0.3;fill:rgb(0.0,0.0,0.0);opacity:1.0;" transform="rotate(-0.0,145.0,114.0)">Mass Velocity</text>
</svg>